<svg viewBox="0 0 42 42" xmlns="http://www.w3.org/2000/svg" xmlns:xlink="http://www.w3.org/1999/xlink" id="Layer_1" overflow="hidden"><g><g><g><path d="M2.67 41.5C1.48 41.5 0.5 40.53 0.5 39.33L0.5 2.67C0.5 1.48 1.47 0.5 2.67 0.5L39.34 0.5C40.53 0.5 41.51 1.47 41.51 2.67L41.51 39.34C41.51 40.53 40.54 41.51 39.34 41.51L2.67 41.51Z" fill="#FFFFFF"/><path d="M39.33 1C40.25 1 41 1.75 41 2.67L41 39.34C41 40.26 40.25 41.01 39.33 41.01L2.67 41.01C1.75 41 1 40.25 1 39.33L1 2.67C1 1.75 1.75 1 2.67 1L39.33 1M39.33 0 2.67 0C1.2 0 0 1.2 0 2.67L0 39.34C0 40.8 1.2 42 2.67 42L39.34 42C40.8 42 42 40.8 42 39.33L42 2.67C42 1.2 40.8 0 39.33 0L39.33 0Z" fill="#FFFFFF"/></g><g><path d="M39.33 1 2.67 1C1.75 1 1 1.75 1 2.67L1 39.34C1 40.25 1.75 41 2.67 41L39.34 41C40.26 41 41.01 40.25 41.01 39.33L41.01 2.67C41 1.75 40.25 1 39.33 1ZM39.52 39.33C39.52 39.43 39.44 39.52 39.33 39.52L2.67 39.52C2.57 39.52 2.48 39.44 2.48 39.33L2.48 2.67C2.48 2.57 2.56 2.48 2.67 2.48L39.34 2.48C39.44 2.48 39.53 2.56 39.53 2.67L39.53 39.33Z" fill="#2C5967"/><path d="M5.44 36.37 36.55 36.37 36.55 27.48 5.44 27.48 5.44 36.37ZM6.93 28.96 35.08 28.96 35.08 34.89 6.93 34.89 6.93 28.96Z" fill="#2C5967"/><circle cx="31.74" cy="31.93" r="1.11" fill="#2C5967"/><path d="M5.44 14.33 36.55 14.33 36.55 5.44 5.44 5.44 5.44 14.33ZM6.93 6.93 35.08 6.93 35.08 12.86 6.93 12.86 6.93 6.93Z" fill="#2C5967"/><circle cx="31.74" cy="9.89" r="1.11" fill="#2C5967"/><path d="M5.44 25.44 36.55 25.44 36.55 16.55 5.44 16.55 5.44 25.44ZM6.93 18.04 35.08 18.04 35.08 23.97 6.93 23.97 6.93 18.04Z" fill="#2C5967"/><circle cx="31.74" cy="21" r="1.11" fill="#2C5967"/></g></g></g></svg>