<svg width="42" height="42" viewBox="0 0 42 42" xmlns="http://www.w3.org/2000/svg" xmlns:xlink="http://www.w3.org/1999/xlink" overflow="hidden"><defs></defs><g><g><rect x="0.5" y="0.5" width="41" height="41" fill="#FFFFFF"/><path d="M41 1 41 41 1 41 1 1 41 1M42 0 41 0 1 0 0 0 0 1 0 41 0 42 1 42 41 42 42 42 42 41 42 1 42 0 42 0Z" fill="#FFFFFF"/></g><g><path d="M1 1 1 41 41 41 41 1 1 1ZM39.5 13.8 13.6 13.8 13.6 2.5 39.5 2.5 39.5 13.8ZM2.5 28.2 12.1 28.2 12.1 39.6 2.5 39.6 2.5 28.2ZM12.1 2.5 12.1 13.9 2.5 13.9 2.5 2.5 12.1 2.5ZM12.1 15.3 12.1 26.7 2.5 26.7 2.5 15.3 12.1 15.3ZM13.6 39.5 13.6 28.2 39.5 28.2 39.5 39.6 13.6 39.6ZM13.6 26.7 13.6 15.3 39.5 15.3 39.5 26.7 13.6 26.7Z" fill="#BB5127"/><path d="M15 12.3 16.7 12.3 17.6 10.6 18.5 12.3 20.1 12.3 18.6 9.6 20 7.1 18.4 7.1 17.6 8.7 16.7 7.1 15.1 7.1 16.6 9.6Z" fill="#BB5127"/><rect x="20.9" y="11.1" width="1.4" height="1.2" fill="#BB5127"/><path d="M25 12.3 25.9 10.6 26.8 12.3 28.4 12.3 26.8 9.6 28.3 7.1 26.8 7.1 25.9 8.7 25 7.1 23.4 7.1 24.9 9.6 23.4 12.3Z" fill="#BB5127"/><rect x="28.9" y="11.1" width="1.4" height="1.2" fill="#BB5127"/><path d="M32.7 12.3 33.6 10.6 34.6 12.3 36.1 12.3 34.6 9.6 36 7.1 34.5 7.1 33.6 8.7 32.7 7.1 31.2 7.1 32.6 9.6 31.1 12.3Z" fill="#BB5127"/><rect x="36.6" y="11.1" width="1.4" height="1.2" fill="#BB5127"/><path d="M20 20.1 18.4 20.1 17.6 21.7 16.7 20.1 15.1 20.1 16.6 22.6 15 25.3 16.7 25.3 17.6 23.6 18.5 25.3 20.1 25.3 18.6 22.6Z" fill="#BB5127"/><rect x="20.9" y="24" width="1.4" height="1.2" fill="#BB5127"/><path d="M28.3 20.1 26.8 20.1 25.9 21.7 25 20.1 23.4 20.1 24.9 22.6 23.4 25.3 25 25.3 25.9 23.6 26.8 25.3 28.4 25.3 26.8 22.6Z" fill="#BB5127"/><rect x="28.9" y="24" width="1.4" height="1.2" fill="#BB5127"/><path d="M36 20.1 34.5 20.1 33.6 21.7 32.7 20.1 31.2 20.1 32.6 22.6 31.1 25.3 32.7 25.3 33.6 23.6 34.6 25.3 36.1 25.3 34.6 22.6Z" fill="#BB5127"/><rect x="36.6" y="24" width="1.4" height="1.2" fill="#BB5127"/><path d="M20 32.9 18.4 32.9 17.6 34.4 16.7 32.9 15.1 32.9 16.6 35.3 15 38 16.7 38 17.6 36.3 18.5 38 20.1 38 18.6 35.4Z" fill="#BB5127"/><rect x="20.9" y="36.8" width="1.4" height="1.2" fill="#BB5127"/><path d="M28.3 32.9 26.8 32.9 25.9 34.4 25 32.9 23.4 32.9 24.9 35.3 23.4 38 25 38 25.9 36.3 26.8 38 28.4 38 26.8 35.4Z" fill="#BB5127"/><rect x="28.9" y="36.8" width="1.4" height="1.2" fill="#BB5127"/><path d="M36 32.9 34.5 32.9 33.6 34.4 32.7 32.9 31.2 32.9 32.6 35.3 31.1 38 32.7 38 33.6 36.3 34.6 38 36.1 38 34.6 35.4Z" fill="#BB5127"/><rect x="36.6" y="36.8" width="1.4" height="1.2" fill="#BB5127"/></g></g></svg>