<svg viewBox="0 0 42.96 42.55" xmlns="http://www.w3.org/2000/svg" xmlns:xlink="http://www.w3.org/1999/xlink" id="Layer_1" overflow="hidden"><g><g><path d="M13.19 41.43 11.83 40.97 10.22 39.36 2.58 39.36C1.43 39.36 0.5 38.43 0.5 37.28L0.5 2.58C0.5 1.43 1.43 0.5 2.58 0.5L37.28 0.5C38.43 0.5 39.36 1.43 39.36 2.58L39.36 11.96C43.49 16.81 43.49 24 39.36 28.85L39.36 37.29C39.36 38.44 38.43 39.37 37.28 39.37L15.85 39.37 13.42 41.8 13.19 41.43Z" fill="#FFFFFF"/><path d="M37.28 1C38.15 1 38.86 1.71 38.86 2.58L38.86 12.15C43 16.86 43 23.95 38.86 28.66L38.86 37.29C38.86 38.16 38.15 38.87 37.28 38.87L15.65 38.87 13.51 41 13.5 40.99 13.49 41 12.09 40.53 12.09 40.53 10.42 38.86 2.58 38.86C1.71 38.86 1 38.15 1 37.28L1 2.58C1 1.71 1.71 1 2.58 1L37.28 1M37.28 0 2.58 0C1.16 0 0 1.16 0 2.58L0 37.28C0 38.7 1.16 39.86 2.58 39.86L10.01 39.86 11.39 41.24 11.56 41.41 11.78 41.48 12.88 41.85 13.36 42.55 14.21 41.71 16.06 39.86 37.28 39.86C38.7 39.86 39.86 38.7 39.86 37.28L39.86 29.02C43.99 24.04 43.99 16.75 39.86 11.77L39.86 2.57C39.86 1.16 38.7 0 37.28 0L37.28 0Z" fill="#FFFFFF"/></g><g><path d="M37.46 37.28C37.46 37.37 37.38 37.46 37.28 37.46L18.57 37.46C18.48 37.55 18.39 37.65 18.3 37.74L17.18 38.86 37.28 38.86C38.15 38.86 38.86 38.15 38.86 37.28L38.86 30.19C38.42 30.62 37.95 31.01 37.46 31.37L37.46 37.28Z" fill="#2C5967"/><path d="M8.39 38.32 8.31 38.08 8.1 37.46 2.58 37.46C2.49 37.46 2.4 37.38 2.4 37.28L2.4 2.58C2.4 2.49 2.48 2.4 2.58 2.4L37.28 2.4C37.37 2.4 37.46 2.48 37.46 2.58L37.46 9.43C37.95 9.79 38.42 10.19 38.86 10.61L38.86 2.58C38.86 1.71 38.15 1 37.28 1L2.58 1C1.71 1 1 1.71 1 2.58L1 37.28C1 38.15 1.71 38.86 2.58 38.86L8.94 38.86 8.57 38.49 8.39 38.32Z" fill="#2C5967"/><path d="M5.11 8.98 6.08 8.98 6.08 4.58 5.4 4.58 4.1 5.5 4.1 6.07 5.11 5.72Z" fill="#2C5967"/><rect x="7.77" y="8.08" width="1.02" height="0.9" fill="#2C5967"/><rect x="7.77" y="5.73" width="1.02" height="0.9" fill="#2C5967"/><path d="M11.51 8.98 12.47 7.29 13.46 8.98 14.56 8.98 13.18 6.68 14.49 4.52 13.44 4.52 12.54 6.05 11.62 4.52 10.53 4.52 11.83 6.66 10.46 8.98Z" fill="#2C5967"/><path d="M17.83 4.43C17.17 4.43 16.65 4.63 16.29 5.04 15.93 5.44 15.74 6.01 15.74 6.75 15.74 7.49 15.92 8.06 16.28 8.46 16.64 8.86 17.16 9.06 17.82 9.06 18.49 9.06 19.01 8.86 19.37 8.46 19.73 8.06 19.91 7.49 19.91 6.75 19.91 6.02 19.73 5.45 19.36 5.04 19 4.63 18.49 4.43 17.83 4.43ZM18.66 7.86C18.48 8.12 18.2 8.25 17.83 8.25 17.46 8.25 17.18 8.12 17 7.86 16.82 7.6 16.73 7.23 16.73 6.74 16.73 6.25 16.82 5.88 17 5.63 17.18 5.37 17.46 5.25 17.83 5.25 18.2 5.25 18.48 5.38 18.66 5.63 18.84 5.89 18.93 6.26 18.93 6.74 18.93 7.23 18.84 7.6 18.66 7.86Z" fill="#2C5967"/><path d="M25.13 4.52 24.07 4.52 23.17 6.06 22.25 4.52 21.15 4.52 22.46 6.67 21.09 8.98 22.09 8.98C22.12 8.96 22.15 8.94 22.18 8.92L23.1 7.29 23.59 8.13C23.87 7.99 24.16 7.87 24.45 7.76L23.8 6.69 25.13 4.52Z" fill="#2C5967"/><path d="M30 5.04C29.64 4.64 29.12 4.43 28.46 4.43 27.8 4.43 27.28 4.63 26.92 5.04 26.56 5.44 26.37 6.01 26.37 6.75 26.37 6.9 26.38 7.03 26.39 7.16 26.71 7.09 27.03 7.02 27.36 6.97 27.36 6.9 27.35 6.82 27.35 6.74 27.35 6.25 27.44 5.88 27.62 5.63 27.8 5.37 28.08 5.25 28.45 5.25 28.82 5.25 29.1 5.38 29.28 5.63 29.46 5.89 29.55 6.26 29.55 6.74 29.55 6.76 29.55 6.79 29.55 6.81 29.88 6.81 30.21 6.83 30.53 6.85 30.53 6.81 30.53 6.77 30.53 6.73 30.54 6.01 30.36 5.44 30 5.04Z" fill="#2C5967"/><path d="M35.76 4.52 34.7 4.52 33.8 6.06 32.88 4.52 31.78 4.52 33.09 6.67 32.76 7.22C33.05 7.29 33.34 7.38 33.63 7.47L33.73 7.29 33.89 7.56C34.38 7.73 34.86 7.92 35.32 8.15L34.44 6.69 35.76 4.52Z" fill="#2C5967"/><path d="M5.95 15.58C6.2 15.3 6.4 15.06 6.55 14.85 6.7 14.65 6.81 14.46 6.87 14.3 6.94 14.14 6.97 13.97 6.97 13.81 6.97 13.41 6.84 13.1 6.58 12.88 6.32 12.66 5.95 12.55 5.48 12.55 5.27 12.55 5.05 12.58 4.83 12.63 4.6 12.7 4.39 12.77 4.2 12.87L4.2 13.69C4.62 13.47 5 13.35 5.33 13.35 5.8 13.35 6.04 13.54 6.04 13.91 6.04 14 6.02 14.1 5.97 14.2 5.92 14.3 5.84 14.43 5.72 14.58 5.6 14.73 5.43 14.92 5.21 15.16L4.09 16.39 4.09 17.03 6.99 17.03 6.99 16.25 5.33 16.25 5.95 15.58Z" fill="#2C5967"/><rect x="7.75" y="16.14" width="1.02" height="0.9" fill="#2C5967"/><rect x="7.75" y="13.79" width="1.02" height="0.9" fill="#2C5967"/><path d="M14.59 12.58 13.54 12.58 12.64 14.12 11.72 12.58 10.62 12.58 11.93 14.72 10.56 17.04 11.61 17.04 12.57 15.35 13.56 17.04 14.66 17.04 13.28 14.74Z" fill="#2C5967"/><path d="M16.38 13.1C16.02 13.5 15.83 14.07 15.83 14.81 15.83 15.55 16.01 16.12 16.37 16.52 16.38 16.53 16.39 16.54 16.4 16.55 16.53 16.12 16.67 15.7 16.84 15.28 16.82 15.13 16.8 14.97 16.8 14.8 16.8 14.31 16.89 13.94 17.07 13.69 17.24 13.45 17.5 13.33 17.83 13.31 17.99 13.04 18.16 12.78 18.35 12.53 18.21 12.51 18.06 12.49 17.9 12.49 17.26 12.49 16.75 12.69 16.38 13.1Z" fill="#2C5967"/><path d="M20.84 30.92 18.9 33.31 18.88 33.33C18.17 34.27 17.4 35.17 16.56 36L14.82 37.74 12.1 35.02 13.84 33.28C14.67 32.45 15.57 31.67 16.5 30.97L19.03 29.13C18.73 28.77 18.44 28.4 18.18 28.01L15.66 29.84C14.67 30.58 13.72 31.41 12.84 32.29L10.11 35.02 14.82 39.73 17.55 37C18.42 36.12 19.25 35.18 19.99 34.19L21.96 31.76C21.58 31.49 21.2 31.21 20.84 30.92Z" fill="#2C5967"/><path d="M9.31 35.89 8.84 36.35 9.31 37.75 9.31 37.75 9.31 37.75 12.1 40.53 12.1 40.53 13.49 41 13.96 40.54Z" fill="#2C5967"/><path d="M29.44 32.93C32.65 32.93 35.86 31.71 38.3 29.26 43.19 24.37 43.19 16.42 38.3 11.53 33.41 6.64 25.46 6.64 20.57 11.53 15.68 16.42 15.68 24.37 20.57 29.26 23.02 31.71 26.23 32.93 29.44 32.93ZM21.57 12.53C23.74 10.36 26.59 9.27 29.44 9.27 32.29 9.27 35.14 10.36 37.31 12.53 41.65 16.87 41.65 23.94 37.31 28.28 32.97 32.62 25.9 32.62 21.56 28.28 17.23 23.93 17.23 16.87 21.57 12.53Z" fill="#2C5967"/><path d="M25.81 24.37C26.98 24.37 27.88 24.02 28.5 23.32 29.13 22.62 29.44 21.62 29.44 20.33 29.44 19.05 29.12 18.06 28.49 17.36 27.86 16.65 26.96 16.3 25.81 16.3 24.66 16.3 23.76 16.65 23.13 17.36 22.5 18.07 22.18 19.06 22.18 20.33 22.18 21.62 22.5 22.62 23.13 23.32 23.75 24.02 24.65 24.37 25.81 24.37ZM24.36 18.39C24.68 17.94 25.16 17.72 25.81 17.72 26.46 17.72 26.94 17.94 27.26 18.39 27.58 18.84 27.74 19.48 27.74 20.33 27.74 21.18 27.58 21.83 27.26 22.28 26.94 22.73 26.46 22.95 25.81 22.95 25.16 22.95 24.68 22.73 24.36 22.28 24.04 21.83 23.88 21.18 23.88 20.33 23.89 19.48 24.04 18.84 24.36 18.39Z" fill="#2C5967"/><path d="M33.99 19.13 32.39 16.45 30.48 16.45 32.76 20.19 30.37 24.22 32.21 24.22 33.88 21.28 35.61 24.22 35.86 24.22C36.16 23.72 36.4 23.18 36.57 22.63L35.12 20.22 36.5 17.94C36.32 17.42 36.08 16.92 35.78 16.44L35.56 16.44 33.99 19.13Z" fill="#2C5967"/><path d="M29.44 30.3C31.98 30.3 34.51 29.33 36.45 27.4 40.31 23.54 40.31 17.25 36.45 13.39 32.59 9.53 26.3 9.53 22.44 13.39 20.57 15.26 19.54 17.75 19.54 20.4 19.54 23.05 20.57 25.54 22.44 27.41 24.37 29.34 26.91 30.3 29.44 30.3ZM23.43 14.39C25.09 12.73 27.27 11.9 29.44 11.9 31.62 11.9 33.8 12.73 35.45 14.39 38.77 17.71 38.77 23.1 35.45 26.42 32.13 29.74 26.74 29.74 23.42 26.42 21.82 24.82 20.93 22.68 20.93 20.41 20.93 18.14 21.83 15.99 23.43 14.39Z" fill="#2C5967"/></g></g></svg>