<svg viewBox="0 0 44.5 42" xmlns="http://www.w3.org/2000/svg" xmlns:xlink="http://www.w3.org/1999/xlink" id="Layer_1" overflow="hidden"><g><g><path d="M22.3 41.5C21.7 41.5 21.1 41.5 20.5 41.5 18.9 41.4 16.6 41.3 14.4 40.8 13.7 40.7 13.1 40.5 12.6 40.3 12 40.1 11.5 39.9 11.1 39.6 10.1 39 9.6 38.3 9.6 37.4L9.6 22.7 0.6 22.7 0.7 21.2C1 17.6 3.1 14.4 6.3 12.7 7 12.3 7.5 11.7 7.6 10.9 8.1 8.3 9.8 6.1 12.2 5 13.2 4.6 14.3 4.3 15.4 4.3 15.6 4.3 15.9 4.3 16.1 4.3 16.2 4.3 16.3 4.3 16.4 4.3 17.1 4.3 17.7 4 18.2 3.5 20.1 1.5 22.7 0.4 25.4 0.4 29.2 0.4 32.5 2.5 34.2 5.8 34.6 6.5 35.2 7 36 7.2 37.1 7.4 38.2 7.9 39.2 8.5 43.7 11.3 45.2 17.1 42.7 21.8L42.3 22.5 34.8 22.5 34.8 37.3C34.8 38 34.5 38.5 33.9 39.1 33.7 39.2 33.5 39.4 33.3 39.5 31.2 40.7 27.2 41.2 25 41.3 24.1 41.5 23.2 41.5 22.3 41.5Z" fill="#FFFFFF"/><path d="M25.5 1C29.1 1 32.3 3 33.9 6.2 34.3 7 35.1 7.6 36 7.8 37.1 8 38.1 8.5 39 9 43.2 11.7 44.7 17.2 42.3 21.6L42 22.1 34.3 22.1 34.3 37.4C34.3 37.9 34 38.4 33.6 38.8 33.4 38.9 33.3 39.1 33.1 39.2 31.3 40.2 28 40.7 25 40.9 24 41 23 41 22.2 41 21.6 41 21 41 20.4 41 18.5 40.9 16.3 40.7 14.4 40.3 13.8 40.2 13.2 40 12.7 39.8 12.2 39.6 11.7 39.4 11.3 39.2 10.5 38.7 10 38.2 10 37.5L10 22.2 1 22.2 1.1 21.2C1.4 17.7 3.4 14.7 6.4 13.1 7.2 12.7 7.8 11.9 8 11 8.5 8.6 10.1 6.6 12.4 5.6 13.4 5.2 14.4 5 15.4 5 15.6 5 15.9 5 16.1 5 16.2 5 16.3 5 16.4 5 17.2 5 18 4.7 18.6 4.1 20.4 2.1 22.9 1 25.5 1M25.5 0C22.6 0 19.9 1.2 17.9 3.3 17.5 3.7 17 3.9 16.5 3.9 16.4 3.9 16.4 3.9 16.3 3.9 16 3.9 15.8 3.9 15.5 3.9 14.3 3.9 13.1 4.1 12.1 4.6 9.5 5.7 7.7 8 7.1 10.7 7 11.4 6.6 11.9 6 12.2 2.6 14 0.4 17.3 0.1 21.1L-3.60822e-16 22.1 0 23.2 1.1 23.2 9.1 23.2 9.1 37.5C9.1 38.2 9.4 39.2 10.9 40.1 11.3 40.4 11.9 40.6 12.5 40.8 13 41 13.7 41.2 14.3 41.3 16.5 41.8 18.8 41.9 20.4 42 21 42 21.7 42 22.3 42 23.2 42 24.2 42 25.2 41.9 27.9 41.7 31.7 41.3 33.8 40 34 39.9 34.3 39.7 34.5 39.5 35.4 38.7 35.6 37.9 35.6 37.4L35.6 23.2 42.3 23.2 42.9 23.2 43.2 22.7 43.5 22.2C46.1 17.3 44.5 11.2 39.8 8.3 38.8 7.6 37.6 7.2 36.5 6.9 35.9 6.8 35.3 6.3 35 5.8 33 2.2 29.4 0 25.5 0L25.5 0Z" fill="#FFFFFF"/></g><g><path d="M39 9.1C38.1 8.5 37 8.1 36 7.9 35.1 7.7 34.3 7.1 33.9 6.2 32.3 3 29.1 1 25.5 1 22.9 1 20.4 2.1 18.7 4 18.1 4.7 17.2 5 16.2 4.9 14.9 4.8 13.6 5 12.5 5.5 10.2 6.5 8.6 8.5 8.1 10.9 7.9 11.8 7.3 12.6 6.5 13 3.4 14.6 1.4 17.7 1.2 21.1L1.1 22.1 6.8 22.1 7 22.1 9 22.1 9 20.3 7 20.3 6.8 20.3 3.1 20.3C3.6 17.9 5.1 15.8 7.3 14.6 8.6 13.9 9.6 12.7 9.8 11.2 10.2 9.4 11.4 7.8 13.1 7.1 14.1 6.8 15 6.6 16 6.7 17.5 6.8 19 6.3 20 5.2 21.4 3.7 23.4 2.8 25.5 2.8 28.4 2.8 30.9 4.4 32.2 7 32.9 8.3 34.1 9.3 35.6 9.6 36.5 9.8 37.3 10.1 38.1 10.6 41.4 12.7 42.6 16.9 41 20.3L35.4 20.3 35.4 22.1 42.1 22.1 42.4 21.6C44.7 17.3 43.3 11.7 39 9.1Z" fill="#2C5967"/><path d="M34.4 17.6C34.4 17.6 34.4 17.5 34.4 17.6 34.4 17.5 34.4 17.4 34.4 17.4 34.4 16.9 34.1 16.4 33.7 16 33.5 15.9 33.4 15.7 33.2 15.6 31.4 14.5 28.1 14 25.1 13.8 24.1 13.7 23.1 13.7 22.3 13.7 21.7 13.7 21.1 13.7 20.5 13.7 18.6 13.8 16.4 14 14.5 14.4 13.9 14.5 13.3 14.7 12.8 14.9 12.3 15.1 11.8 15.3 11.4 15.5 10.6 16 10.1 16.6 10.1 17.3 10.1 17.3 10.1 17.4 10.1 17.4 10.1 17.4 10.1 17.5 10.1 17.5L10.1 23.8 10.1 24.1 10.1 30.5 10.1 30.7 10.1 37.3C10.1 38 10.6 38.6 11.4 39 11.8 39.2 12.3 39.4 12.8 39.6 13.3 39.8 13.9 39.9 14.5 40.1 16.4 40.5 18.5 40.7 20.5 40.8 21.1 40.8 21.8 40.8 22.3 40.8 23.1 40.8 24.1 40.8 25.1 40.7 28.1 40.5 31.4 40 33.2 39 33.4 38.9 33.6 38.8 33.7 38.6 34.2 38.2 34.4 37.8 34.4 37.2L34.4 30.6 34.4 30.4 34.4 24 34.4 23.7 34.4 17.6ZM22.2 15.4C28.6 15.4 32.4 16.7 32.7 17.4 32.4 18.1 28.5 19.4 22.2 19.4 15.9 19.4 12 18.1 11.7 17.4 12.1 16.7 15.9 15.4 22.2 15.4ZM11.7 19.4C14.2 20.7 19 21 22.2 21 25.4 21 30.2 20.6 32.7 19.4L32.7 24.2C32.5 24.6 29.5 26.1 22.2 26.1 14.9 26.1 12 24.7 11.7 24.2L11.7 19.4ZM32.8 26.2 32.8 30.8C32.6 31.2 29.6 32.7 22.3 32.7 15 32.7 12 31.3 11.7 30.8L11.7 26.2C14.2 27.4 19 27.8 22.2 27.8 25.4 27.8 30.3 27.4 32.8 26.2ZM22.2 39.4C14.9 39.4 11.9 37.9 11.7 37.5L11.7 32.8C14.2 34 19 34.4 22.2 34.4 25.4 34.4 30.2 34 32.7 32.8L32.7 37.5C32.5 37.9 29.6 39.4 22.2 39.4Z" fill="#2C5967"/></g></g></svg>