<svg width="40" height="40" viewBox="0 0 40 40" xmlns="http://www.w3.org/2000/svg" xmlns:xlink="http://www.w3.org/1999/xlink" overflow="hidden"><defs></defs><path d="M0.5 39.5 0.5 13.1 17.3 13.1 17.3 5.3 28.5 0.5 39.6 5.3 39.6 15.5C39.6 15.6 39.6 18.1 38.2 21.1 37 23.8 34.4 27.4 28.9 29.5L28.9 39.5 0.5 39.5 0.5 39.5Z" fill="#FFFFFF"/><path d="M28.4 1.1 39 5.6 39 15.5C39 15.6 39 18 37.7 20.9 36.5 23.6 34 27.2 28.7 29.1L28.5 29.2 28.4 29.2 28.4 39 1 39 1 13.6 17.8 13.6 17.8 5.6 28.4 1.1ZM28.4 0 28 0.2 17.3 4.7 16.8 5 16.8 5.7 16.8 12.7 1 12.7 0 12.7 0 13.7 0 39 0 40 1 40 28.4 40 29.4 40 29.4 39 29.4 29.8C34.7 27.7 37.4 24 38.6 21.2 40 18.1 40 15.5 40 15.4L40 5.6 40 5 39.4 4.7 28.8 0.2 28.4 0Z" fill="#FFFFFF"/><path d="M27 29.7 9.5 29.7 9.5 23 19 23C18.7 22.5 18.5 22.1 18.3 21.7L9.5 21.7 9.5 15 16.6 15 16.6 13.7 1 13.7 1 39.1 28.4 39.1 28.4 30.3 27.9 30.1C27.6 29.9 27.3 29.8 27 29.7ZM2.2 14.9 8.3 14.9 8.3 21.6 2.2 21.6 2.2 14.9ZM8.3 22.9 8.3 29.6 2.2 29.6 2.2 22.9 8.3 22.9ZM2.2 31 8.3 31 8.3 37.7 2.2 37.7 2.2 31ZM27 37.7 9.5 37.7 9.5 31 27 31 27 37.7Z" fill="#AE562C"/><path d="M25.6 35.2 24.4 35.2 24.4 36.5 25.6 36.5 25.6 35.2Z" fill="#AE562C"/><path d="M20.4 36.4 21.5 35.2 22.6 36.4 23.5 35.4 22.4 34.2 23.5 33 22.6 32.1 21.5 33.3 20.4 32.1 19.4 33 20.5 34.2 19.4 35.4 20.4 36.4Z" fill="#AE562C"/><path d="M17.6 35.2 16.4 35.2 16.4 36.5 17.6 36.5 17.6 35.2Z" fill="#AE562C"/><path d="M11.5 35.5 12.4 36.5 13.5 35.3 14.6 36.5 15.6 35.5 14.5 34.3 15.6 33.1 14.6 32.2 13.5 33.4 12.4 32.2 11.5 33.1 12.6 34.3 11.5 35.5Z" fill="#AE562C"/><path d="M17.6 27.1 16.4 27.1 16.4 28.4 17.6 28.4 17.6 27.1Z" fill="#AE562C"/><path d="M11.5 27.4 12.4 28.4 13.5 27.2 14.6 28.4 15.6 27.4 14.5 26.2 15.6 25 14.6 24.1 13.5 25.3 12.4 24.1 11.5 25 12.6 26.2 11.5 27.4Z" fill="#AE562C"/><path d="M16.1 20.4 17.3 20.4 17.3 19.1C17.3 19.1 17.3 19.1 17.3 19L16.1 19 16.1 20.4Z" fill="#AE562C"/><path d="M11.1 19.4 12.1 20.3 13.2 19.1 14.3 20.3 15.2 19.4 14.1 18.2 15.2 17 14.3 16 13.2 17.2 12.1 16 11.1 17 12.2 18.2 11.1 19.4Z" fill="#AE562C"/><path d="M17.7 5.6 17.7 15.5C17.7 15.6 17.8 18 19 20.9 20.2 23.6 22.8 27.2 28.1 29.1L28.3 29.2 28.5 29.1C33.8 27.2 36.4 23.6 37.5 20.9 39 18 39 15.6 39 15.5L39 5.6 28.4 1.1 17.7 5.6ZM37.8 15.5C37.8 15.6 37.6 24.3 28.5 27.7 24.7 26.3 21.9 23.8 20.3 20.4 19 17.8 19 15.5 19 15.5L19 6.5 28.4 2.5 37.7 6.5 37.7 15.5Z" fill="#AE562C"/><path d="M27.2 16.8 22.2 16.8 22.2 18.1 27.2 18.1 27.2 16.8Z" fill="#AE562C"/><path d="M27.2 10.4 22.2 10.4 22.2 11.7 27.2 11.7 27.2 10.4Z" fill="#AE562C"/><path d="M33.9 8.9 31.1 11.6 30.1 10.6 29.1 11.5 31 13.4 34.6 9.7 33.9 8.9Z" fill="#AE562C"/><path d="M22.3 14.9 27 14.9 27.2 14.9 27.2 13.6 22.2 13.6 22.2 14.9Z" fill="#AE562C"/></svg>