<svg viewBox="0 0 40.23 40.23" xmlns="http://www.w3.org/2000/svg" xmlns:xlink="http://www.w3.org/1999/xlink" id="Layer_1" overflow="hidden"><g><g><path d="M2.59 39.73C1.44 39.73 0.5 38.79 0.5 37.64L0.5 2.59C0.5 1.44 1.44 0.5 2.59 0.5L37.63 0.5C38.78 0.5 39.72 1.44 39.72 2.59L39.72 37.63C39.72 38.78 38.78 39.72 37.63 39.72L2.59 39.72Z" fill="#FFFFFF"/><path d="M37.64 1C38.52 1 39.23 1.71 39.23 2.59L39.23 37.63C39.23 38.51 38.52 39.22 37.64 39.22L2.59 39.22C1.71 39.23 1 38.52 1 37.64L1 2.59C1 1.71 1.71 1 2.59 1L37.64 1M37.64 0 2.59 0C1.16 0 0 1.16 0 2.59L0 37.63C0 39.06 1.16 40.22 2.59 40.22L37.63 40.22C39.06 40.22 40.22 39.06 40.22 37.63L40.22 2.59C40.23 1.16 39.07 0 37.64 0L37.64 0Z" fill="#FFFFFF"/></g><g><rect x="6.66" y="17.28" width="1.06" height="5.66" fill="none"/><rect x="14.1" y="17.28" width="1.06" height="5.66" fill="none"/><rect x="9.14" y="17.28" width="1.06" height="5.66" fill="none"/><path d="M33.57 27.73 6.66 27.73 6.66 33.39 33.56 33.39 33.56 27.73ZM30.38 31.62C29.79 31.62 29.32 31.14 29.32 30.56 29.32 29.97 29.8 29.5 30.38 29.5 30.97 29.5 31.44 29.98 31.44 30.56 31.44 31.14 30.97 31.62 30.38 31.62Z" fill="none"/><rect x="11.62" y="17.28" width="1.06" height="5.66" fill="none"/><rect x="16.58" y="17.28" width="1.06" height="5.66" fill="none"/><rect x="11.62" y="6.66" width="1.06" height="5.66" fill="none"/><rect x="16.58" y="6.66" width="1.06" height="5.66" fill="none"/><rect x="9.14" y="6.66" width="1.06" height="5.66" fill="none"/><rect x="30.03" y="17.28" width="1.06" height="5.66" fill="none"/><rect x="14.1" y="6.66" width="1.06" height="5.66" fill="none"/><rect x="6.66" y="6.66" width="1.06" height="5.66" fill="none"/><rect x="27.55" y="17.28" width="1.06" height="5.66" fill="none"/><rect x="32.5" y="6.66" width="1.06" height="5.66" fill="none"/><rect x="25.07" y="6.66" width="1.06" height="5.66" fill="none"/><rect x="30.03" y="6.66" width="1.06" height="5.66" fill="none"/><rect x="27.55" y="6.66" width="1.06" height="5.66" fill="none"/><path d="M37.64 2.42 2.59 2.42C2.49 2.42 2.41 2.5 2.41 2.6L2.41 37.64C2.41 37.74 2.49 37.82 2.59 37.82L37.63 37.82C37.73 37.82 37.81 37.74 37.81 37.64L37.81 2.59C37.81 2.5 37.73 2.42 37.64 2.42ZM5.25 5.25 19.06 5.25 19.06 13.75 5.25 13.75 5.25 5.25ZM5.25 15.87 19.06 15.87 19.06 24.37 5.25 24.37 5.25 15.87ZM34.98 34.81 5.25 34.81 5.25 26.31 34.98 26.31 34.98 34.81ZM34.98 24.36 21.18 24.36 21.18 15.86 34.99 15.86 34.99 24.36ZM34.98 13.74 21.18 13.74 21.18 5.24 34.99 5.24 34.99 13.74Z" fill="none"/><rect x="22.59" y="6.66" width="1.06" height="5.66" fill="none"/><rect x="32.5" y="17.28" width="1.06" height="5.66" fill="none"/><rect x="25.07" y="17.28" width="1.06" height="5.66" fill="none"/><rect x="22.59" y="17.28" width="1.06" height="5.66" fill="none"/><path d="M37.64 1 2.59 1C1.71 1 1 1.71 1 2.59L1 37.63C1 38.51 1.71 39.22 2.59 39.22L37.63 39.22C38.51 39.22 39.22 38.51 39.22 37.63L39.22 2.59C39.23 1.71 38.52 1 37.64 1ZM37.81 37.64C37.81 37.74 37.73 37.82 37.63 37.82L2.59 37.82C2.49 37.82 2.41 37.74 2.41 37.64L2.41 2.59C2.41 2.49 2.49 2.41 2.59 2.41L37.63 2.41C37.73 2.41 37.81 2.49 37.81 2.59L37.81 37.64Z" fill="#2C5967"/><path d="M5.25 34.81 34.98 34.81 34.98 26.31 5.25 26.31 5.25 34.81ZM6.66 27.73 33.56 27.73 33.56 33.39 6.66 33.39 6.66 27.73Z" fill="#2C5967"/><circle cx="30.38" cy="30.56" r="1.06" fill="#2C5967"/><path d="M19.05 5.25 5.25 5.25 5.25 13.75 19.06 13.75 19.06 5.25ZM11.62 6.66 12.68 6.66 12.68 12.32 11.62 12.32 11.62 6.66ZM10.2 12.33 9.14 12.33 9.14 6.66 10.2 6.66 10.2 12.33ZM14.1 6.66 15.16 6.66 15.16 12.32 14.1 12.32 14.1 6.66ZM6.66 6.66 7.72 6.66 7.72 12.32 6.66 12.32 6.66 6.66ZM17.64 12.33 16.58 12.33 16.58 6.66 17.64 6.66 17.64 12.33Z" fill="#2C5967"/><path d="M21.18 13.74 34.99 13.74 34.99 5.24 21.18 5.24 21.18 13.74ZM28.61 12.33 27.55 12.33 27.55 6.66 28.61 6.66 28.61 12.33ZM30.03 6.66 31.09 6.66 31.09 12.32 30.03 12.32 30.03 6.66ZM26.13 12.33 25.07 12.33 25.07 6.66 26.13 6.66 26.13 12.33ZM33.57 12.33 32.5 12.33 32.5 6.66 33.56 6.66 33.56 12.33ZM22.59 6.66 23.65 6.66 23.65 12.32 22.59 12.32 22.59 6.66Z" fill="#2C5967"/><path d="M19.05 15.87 5.25 15.87 5.25 24.37 19.06 24.37 19.06 15.87ZM11.62 17.28 12.68 17.28 12.68 22.94 11.62 22.94 11.62 17.28ZM10.2 22.95 9.14 22.95 9.14 17.29 10.2 17.29 10.2 22.95ZM14.1 17.28 15.16 17.28 15.16 22.94 14.1 22.94 14.1 17.28ZM6.66 17.28 7.72 17.28 7.72 22.94 6.66 22.94 6.66 17.28ZM17.64 22.95 16.58 22.95 16.58 17.29 17.64 17.29 17.64 22.95Z" fill="#2C5967"/><path d="M21.18 24.36 34.99 24.36 34.99 15.86 21.18 15.86 21.18 24.36ZM28.61 22.95 27.55 22.95 27.55 17.29 28.61 17.29 28.61 22.95ZM30.03 17.28 31.09 17.28 31.09 22.94 30.03 22.94 30.03 17.28ZM26.13 22.95 25.07 22.95 25.07 17.29 26.13 17.29 26.13 22.95ZM33.57 22.95 32.5 22.95 32.5 17.29 33.56 17.29 33.56 22.95ZM22.59 17.28 23.65 17.28 23.65 22.94 22.59 22.94 22.59 17.28Z" fill="#2C5967"/></g></g></svg>