<svg viewBox="0 0 42 42" xmlns="http://www.w3.org/2000/svg" xmlns:xlink="http://www.w3.org/1999/xlink" id="Layer_1" overflow="hidden"><g><g><path d="M2.67 41.5C1.48 41.5 0.5 40.53 0.5 39.33L0.5 2.67C0.5 1.48 1.47 0.5 2.67 0.5L39.34 0.5C40.53 0.5 41.51 1.47 41.51 2.67L41.51 39.34C41.51 40.53 40.54 41.51 39.34 41.51L2.67 41.51Z" fill="#FFFFFF"/><path d="M39.33 1C40.25 1 41 1.75 41 2.67L41 39.34C41 40.26 40.25 41.01 39.33 41.01L2.67 41.01C1.75 41 1 40.25 1 39.33L1 2.67C1 1.75 1.75 1 2.67 1L39.33 1M39.33 0 2.67 0C1.2 0 0 1.2 0 2.67L0 39.34C0 40.8 1.2 42 2.67 42L39.34 42C40.8 42 42 40.8 42 39.33L42 2.67C42 1.2 40.8 0 39.33 0L39.33 0Z" fill="#FFFFFF"/></g><g><path d="M39.33 41 2.67 41C1.75 41 1 40.25 1 39.33L1 2.67C1 1.75 1.75 1 2.67 1L39.34 1C40.25 1 41 1.75 41 2.67L41 39.34C41 40.25 40.25 41 39.33 41ZM2.67 2.48C2.57 2.48 2.48 2.56 2.48 2.67L2.48 39.34C2.48 39.44 2.56 39.53 2.67 39.53L39.34 39.53C39.44 39.53 39.53 39.45 39.53 39.34L39.53 2.67C39.53 2.57 39.45 2.48 39.34 2.48L2.67 2.48Z" fill="#2C5967"/></g><g><g><g><path d="M20.35 20.44 11.46 20.44 11.46 11.55 20.35 11.55 20.35 20.44ZM12.94 18.96 18.87 18.96 18.87 13.03 12.94 13.03 12.94 18.96Z" fill="#2C5967"/></g></g><g><g><path d="M30.35 20.44 21.46 20.44 21.46 11.55 30.35 11.55 30.35 20.44ZM22.94 18.96 28.87 18.96 28.87 13.03 22.94 13.03 22.94 18.96Z" fill="#2C5967"/></g></g><g><g><path d="M25.44 30.44 16.55 30.44 16.55 21.55 25.44 21.55 25.44 30.44ZM18.04 28.96 23.97 28.96 23.97 23.03 18.04 23.03 18.04 28.96Z" fill="#2C5967"/></g></g><g><g><path d="M35.44 30.44 26.55 30.44 26.55 21.55 35.44 21.55 35.44 30.44ZM28.04 28.96 33.97 28.96 33.97 23.03 28.04 23.03 28.04 28.96Z" fill="#2C5967"/></g></g><g><g><path d="M15.44 30.44 6.56 30.44 6.56 21.55 15.45 21.55 15.45 30.44ZM8.04 28.96 13.97 28.96 13.97 23.03 8.04 23.03 8.04 28.96Z" fill="#2C5967"/></g></g></g></g></svg>