<svg width="42" height="42" viewBox="0 0 42 42" xmlns="http://www.w3.org/2000/svg" xmlns:xlink="http://www.w3.org/1999/xlink" overflow="hidden"><defs></defs><g><g><path d="M2.7 41.5C1.5 41.5 0.5 40.5 0.5 39.3L0.5 2.7C0.5 1.5 1.5 0.5 2.7 0.5L39.4 0.5C40.6 0.5 41.6 1.5 41.6 2.7L41.6 39.4C41.6 40.6 40.6 41.6 39.4 41.6L2.7 41.6Z" fill="#FFFFFF"/><path d="M39.3 1C40.3 1 41 1.7 41 2.7L41 39.4C41 40.3 40.3 41.1 39.3 41.1L2.7 41.1C1.7 41 1 40.3 1 39.3L1 2.7C1 1.7 1.7 1 2.7 1L39.3 1M39.3 0 2.7 0C1.2 0 0 1.2 0 2.7L0 39.4C0 40.8 1.2 42 2.7 42L39.4 42C40.9 42 42.1 40.8 42.1 39.3L42.1 2.7C42 1.2 40.8 0 39.3 0L39.3 0Z" fill="#FFFFFF"/></g><g><path d="M39.3 1 2.7 1C1.7 1 1 1.7 1 2.7L1 39.4C1 40.3 1.7 41 2.7 41L39.4 41C40.3 41 41.1 40.3 41.1 39.3L41.1 2.7C41 1.7 40.3 1 39.3 1ZM39.5 39.3C39.5 39.4 39.4 39.5 39.3 39.5L2.7 39.5C2.6 39.5 2.5 39.4 2.5 39.3L2.5 2.7C2.5 2.6 2.6 2.5 2.7 2.5L39.4 2.5C39.5 2.5 39.6 2.6 39.6 2.7L39.6 39.3Z" fill="#3953A4"/><path d="M5.4 36.4 36.5 36.4 36.5 27.5 5.4 27.5 5.4 36.4ZM6.9 29 35 29 35 34.9 6.9 34.9 6.9 29Z" fill="#3953A4"/><circle cx="31.7" cy="31.9" r="1.1" fill="#3953A4"/><path d="M5.4 14.3 36.5 14.3 36.5 5.4 5.4 5.4 5.4 14.3ZM6.9 6.9 35 6.9 35 12.8 6.9 12.8 6.9 6.9Z" fill="#3953A4"/><circle cx="31.7" cy="9.9" r="1.1" fill="#3953A4"/><path d="M5.4 25.4 36.5 25.4 36.5 16.5 5.4 16.5 5.4 25.4ZM6.9 18 35 18 35 24 6.9 24 6.9 18Z" fill="#3953A4"/><circle cx="31.7" cy="21" r="1.1" fill="#3953A4"/></g></g></svg>