<svg width="43.5" height="42" viewBox="0 0 43.5 42" xmlns="http://www.w3.org/2000/svg" xmlns:xlink="http://www.w3.org/1999/xlink" overflow="hidden"><defs></defs><g><path d="M31.2 41.5C28.4 41.5 25.9 39.5 25.3 36.7L18.2 36.7C17.6 39.4 15.2 41.5 12.3 41.5 9 41.5 6.3 38.8 6.3 35.5 6.3 33.4 7.5 31.4 9.3 30.3L7.1 23.6C6.9 23.6 6.7 23.6 6.5 23.6 3.2 23.6 0.5 20.9 0.5 17.6 0.5 14.3 3.2 11.6 6.5 11.6 8 11.6 9.4 12.1 10.5 13.2L16.3 9C16 8.2 15.8 7.4 15.8 6.5 15.8 3.2 18.5 0.5 21.8 0.5 25.1 0.5 27.8 3.2 27.8 6.5 27.8 7.3 27.6 8.2 27.3 9L33 13.2C34.1 12.2 35.5 11.6 37 11.6 40.3 11.6 43 14.3 43 17.6 43 20.9 40.3 23.6 37 23.6 36.8 23.6 36.6 23.6 36.4 23.6L34.2 30.3C36 31.4 37.2 33.4 37.2 35.5 37.2 38.8 34.5 41.5 31.2 41.5Z" fill="#FFFFFF"/><path d="M21.7 1C24.7 1 27.2 3.5 27.2 6.5 27.2 7.4 27 8.3 26.5 9.1L32.9 13.8C33.9 12.7 35.3 12.1 36.9 12.1 39.9 12.1 42.4 14.6 42.4 17.6 42.4 20.6 39.9 23.1 36.9 23.1 36.6 23.1 36.2 23.1 35.9 23L33.4 30.5C35.2 31.4 36.5 33.3 36.5 35.5 36.5 38.5 34 41 31 41 28.2 41 25.9 38.9 25.5 36.2L17.6 36.2C17.2 38.9 14.9 41 12.1 41 9.1 41 6.6 38.5 6.6 35.5 6.6 33.3 7.9 31.4 9.7 30.5L7.5 23C7.2 23.1 6.8 23.1 6.5 23.1 3.5 23.1 1 20.6 1 17.6 1 14.6 3.5 12.1 6.5 12.1 8.1 12.1 9.5 12.8 10.5 13.8L16.9 9.1C16.5 8.3 16.2 7.4 16.2 6.5 16.2 3.5 18.7 1 21.7 1M21.7 0C18.1 0 15.2 2.9 15.2 6.5 15.2 7.3 15.3 8.1 15.6 8.8L10.5 12.5C9.4 11.6 7.9 11.1 6.5 11.1 2.9 11.1 0 14 0 17.6 0 21.2 2.9 24.1 6.5 24.1 6.6 24.1 6.7 24.1 6.8 24.1L8.7 30.1C6.9 31.3 5.8 33.3 5.8 35.5 5.8 39.1 8.7 42 12.3 42 15.2 42 17.8 40 18.6 37.2L24.9 37.2C25.7 40 28.2 42 31.2 42 34.8 42 37.7 39.1 37.7 35.5 37.7 33.3 36.6 31.3 34.8 30.1L36.7 24.1C36.8 24.1 36.9 24.1 37 24.1 40.6 24.1 43.5 21.2 43.5 17.6 43.5 14 40.6 11.1 37 11.1 35.5 11.1 34.1 11.6 32.9 12.5L27.8 8.8C28.1 8.1 28.2 7.3 28.2 6.5 28.3 2.9 25.3 0 21.7 0L21.7 0Z" fill="#FFFFFF"/></g><g><path d="M37 12.1C35.4 12.1 34 12.8 33 13.8L26.6 9.1C27 8.3 27.3 7.4 27.3 6.5 27.3 3.5 24.8 1 21.8 1 18.8 1 16.3 3.5 16.3 6.5 16.3 7.4 16.5 8.3 17 9.1L10.6 13.8C9.6 12.8 8.2 12.1 6.6 12.1 3.6 12.1 1.1 14.6 1.1 17.6 1.1 20.6 3.6 23.1 6.6 23.1 6.9 23.1 7.3 23.1 7.6 23L10 30.5C8.2 31.4 6.9 33.3 6.9 35.5 6.9 38.5 9.4 41 12.4 41 15.2 41 17.5 38.9 17.9 36.2L25.8 36.2C26.2 38.9 28.5 41 31.3 41 34.3 41 36.8 38.5 36.8 35.5 36.8 33.3 35.5 31.4 33.7 30.5L36 23C36.3 23.1 36.7 23.1 37 23.1 40 23.1 42.5 20.6 42.5 17.6 42.5 14.6 40 12.1 37 12.1ZM31.2 39.5C29 39.5 27.2 37.7 27.2 35.5 27.2 33.3 29 31.5 31.2 31.5 33.4 31.5 35.2 33.3 35.2 35.5 35.2 37.7 33.4 39.5 31.2 39.5ZM17.8 34.8C17.6 33.5 17 32.4 16.1 31.5L19.1 27.3C19.9 27.7 20.8 28 21.7 28 22.6 28 23.5 27.8 24.3 27.3L27.3 31.5C26.4 32.3 25.8 33.5 25.6 34.8L17.8 34.8ZM8.3 35.5C8.3 33.3 10.1 31.5 12.3 31.5 14.5 31.5 16.3 33.3 16.3 35.5 16.3 37.7 14.5 39.5 12.3 39.5 10.1 39.5 8.3 37.7 8.3 35.5ZM6.5 13.5C8.7 13.5 10.5 15.3 10.5 17.5 10.5 19.7 8.7 21.5 6.5 21.5 4.3 21.5 2.5 19.7 2.5 17.5 2.5 15.3 4.3 13.5 6.5 13.5ZM17.7 6.5C17.7 4.3 19.5 2.5 21.7 2.5 23.9 2.5 25.7 4.3 25.7 6.5 25.7 8.7 23.9 10.5 21.7 10.5 19.5 10.5 17.7 8.7 17.7 6.5ZM31.6 18.5 26.7 20.1C25.9 18.5 24.3 17.3 22.5 17L22.5 12C23.8 11.8 24.9 11.2 25.7 10.3L32.1 15C31.7 15.8 31.4 16.7 31.4 17.6 31.5 17.9 31.5 18.2 31.6 18.5ZM25.8 22.5C25.8 24.7 24 26.5 21.8 26.5 19.6 26.5 17.8 24.7 17.8 22.5 17.8 20.3 19.6 18.5 21.8 18.5 24 18.5 25.8 20.2 25.8 22.5ZM21 12 21 17C19.1 17.3 17.5 18.4 16.8 20.1L11.9 18.5C12 18.2 12 17.9 12 17.5 12 16.6 11.8 15.7 11.3 14.9L17.7 10.2C18.6 11.2 19.7 11.8 21 12ZM11.5 19.9 16.4 21.5C16.3 21.8 16.3 22.1 16.3 22.5 16.3 24.1 17 25.5 18 26.5L15 30.7C14.2 30.3 13.3 30 12.4 30 12.1 30 11.7 30 11.4 30.1L9 22.6C10 22 10.9 21.1 11.5 19.9ZM31.2 30C30.3 30 29.4 30.2 28.6 30.7L25.6 26.5C26.7 25.5 27.3 24.1 27.3 22.5 27.3 22.2 27.3 21.8 27.2 21.5L32.1 19.9C32.6 21 33.6 21.9 34.7 22.5L32.2 30C31.8 30 31.5 30 31.2 30ZM33 17.6C33 15.4 34.8 13.6 37 13.6 39.2 13.6 41 15.4 41 17.6 41 19.8 39.2 21.6 37 21.6 34.8 21.6 33 19.8 33 17.6Z" fill="#BB5127"/></g></svg>