<svg viewBox="0 0 32.98 42" xmlns="http://www.w3.org/2000/svg" xmlns:xlink="http://www.w3.org/1999/xlink" id="Layer_1" overflow="hidden"><g><g><g><path d="M16.49 21.29C10.76 21.29 6.09 16.63 6.09 10.9 6.09 5.17 10.75 0.5 16.49 0.5 22.22 0.5 26.89 5.16 26.89 10.9 26.88 16.63 22.22 21.29 16.49 21.29Z" fill="#FFFFFF"/><path d="M16.49 1C21.95 1 26.39 5.44 26.39 10.9 26.39 16.36 21.95 20.8 16.49 20.8 11.03 20.8 6.59 16.36 6.59 10.9 6.59 5.44 11.03 1 16.49 1M16.49 0C10.48 0 5.59 4.89 5.59 10.9 5.59 16.91 10.48 21.8 16.49 21.8 22.5 21.8 27.39 16.91 27.39 10.9 27.38 4.89 22.5 0 16.49 0L16.49 0Z" fill="#FFFFFF"/></g><g><path d="M0.5 41.5 0.5 28.84C0.5 24.82 3.77 21.55 7.79 21.55L9.96 21.55 10.36 22.07C11.84 23.99 14.07 25.09 16.49 25.09 16.83 25.09 17.17 25.07 17.51 25.03 19.51 24.78 21.42 23.63 22.76 21.89L23.02 21.55 25.19 21.55C29.21 21.55 32.48 24.82 32.48 28.84L32.48 41.5 0.5 41.5Z" fill="#FFFFFF"/><path d="M25.18 22.04C28.93 22.04 31.97 25.08 31.97 28.83L31.97 41 30.48 41 30.3 41 1 41 1 28.84C1 25.09 4.04 22.05 7.79 22.05L9.71 22.05 9.96 22.38C11.53 24.42 13.91 25.6 16.48 25.6 16.84 25.6 17.2 25.58 17.56 25.53 19.79 25.25 21.78 23.98 23.15 22.2L23.26 22.06 25.18 22.06M25.18 21.04 23.26 21.04 22.77 21.04 22.47 21.43 22.36 21.57C21.1 23.21 19.31 24.29 17.44 24.52 17.12 24.56 16.8 24.58 16.49 24.58 14.23 24.58 12.14 23.55 10.76 21.75L10.51 21.42 10.21 21.03 9.71 21.03 7.79 21.03C3.49 21.03 0 24.53 0 28.82L0 41 0 42 1 42 30.31 42 30.49 42 31.98 42 32.98 42 32.98 41 32.98 28.84C32.98 24.54 29.48 21.04 25.18 21.04L25.18 21.04Z" fill="#FFFFFF"/></g></g><g><path d="M16.49 20.79C21.95 20.79 26.39 16.35 26.39 10.89 26.39 5.43 21.95 1 16.49 1 11.03 1 6.59 5.44 6.59 10.9 6.59 16.36 11.03 20.79 16.49 20.79ZM16.49 2.67C21.03 2.67 24.72 6.36 24.72 10.9 24.72 15.44 21.03 19.13 16.49 19.13 11.95 19.13 8.26 15.44 8.26 10.9 8.26 6.36 11.95 2.67 16.49 2.67Z" fill="#2C5967"/><path d="M25.18 22.04 23.26 22.04 23.01 22.37C21.44 24.41 19.06 25.59 16.49 25.59 13.92 25.59 11.54 24.42 9.97 22.37L9.72 22.04 7.79 22.04C4.05 22.04 1 25.09 1 28.84L1 41 2.67 41 2.67 28.84C2.67 26.01 4.97 23.71 7.8 23.71L8.9 23.71C10.79 25.97 13.53 27.25 16.48 27.25 19.43 27.25 22.18 25.96 24.06 23.71L25.17 23.71C28 23.71 30.3 26.01 30.3 28.84L30.3 41 31.97 41 31.97 28.84C31.98 25.09 28.93 22.04 25.18 22.04Z" fill="#2C5967"/></g><path d="" stroke="#FFFFFF" stroke-miterlimit="10" fill="#FFFFFF"/></g></svg>