<svg viewBox="0 0 41.95 42" xmlns="http://www.w3.org/2000/svg" xmlns:xlink="http://www.w3.org/1999/xlink" id="Layer_1" overflow="hidden"><g><g><g><g><path d="M0.5 41.5 0.5 39.95 1.95 39.23 1.95 34.63C1.95 33.27 3.05 32.17 4.41 32.17L17.53 32.17C18.89 32.17 19.99 33.27 19.99 34.63L19.99 39.23 21.23 39.98 21.23 41.5 0.5 41.5Z" fill="#FFFFFF"/><path d="M17.53 32.67C18.61 32.67 19.49 33.55 19.49 34.63L19.49 39.52 19.5 39.52 20.73 40.26 20.73 41 1 41 1 40.26 2.45 39.54 2.45 34.63C2.45 33.55 3.33 32.67 4.41 32.67L17.53 32.67M17.53 31.67 4.41 31.67C2.78 31.67 1.45 33 1.45 34.63L1.45 38.92 0.55 39.37 0 39.64 0 40.26 0 41 0 42 1 42 20.73 42 21.73 42 21.73 41 21.73 40.26 21.73 39.69 21.24 39.4 20.48 38.94 20.48 34.62C20.49 32.99 19.16 31.67 17.53 31.67L17.53 31.67Z" fill="#FFFFFF"/></g><g><path d="M34.67 38.55 23.86 27.75 18.16 21.45 15.91 23.7C16.31 24.52 16.16 25.52 15.5 26.18L14.39 27.29C13.98 27.7 13.44 27.92 12.86 27.92 12.28 27.92 11.74 27.69 11.33 27.29L2.46 18.42C1.62 17.58 1.62 16.2 2.46 15.36L3.57 14.25C3.98 13.84 4.52 13.62 5.1 13.62 5.43 13.62 5.76 13.7 6.05 13.84L15.16 4.73C14.76 3.91 14.91 2.91 15.57 2.25L16.68 1.14C17.09 0.73 17.63 0.51 18.21 0.51 18.79 0.51 19.33 0.74 19.74 1.14L28.61 10.01C29.45 10.85 29.45 12.23 28.61 13.07L27.5 14.18C27.09 14.59 26.55 14.81 25.97 14.81 25.64 14.81 25.31 14.73 25.02 14.59L22.79 16.82 29.24 22.37 40.01 33.14 41.37 34.93 40.72 36.87 38.31 39.28 36.37 39.93 34.67 38.55Z" fill="#FFFFFF"/><path d="M18.21 1C18.64 1 19.06 1.16 19.39 1.49L28.26 10.36C28.91 11.01 28.91 12.07 28.26 12.72L28.26 12.72 27.15 13.83C26.83 14.15 26.4 14.32 25.97 14.32 25.61 14.32 25.24 14.2 24.94 13.97L22.05 16.86 28.91 22.76 39.65 33.5 40.81 35.03 40.28 36.6 40.28 36.6 40.28 36.6 38.04 38.84 38.04 38.84 36.47 39.37 34.98 38.17 24.22 27.39 18.18 20.72 15.28 23.62C15.79 24.27 15.75 25.22 15.15 25.82L15.15 25.82 14.04 26.93C13.72 27.25 13.29 27.42 12.86 27.42 12.43 27.42 12.01 27.26 11.68 26.93L2.81 18.06C2.16 17.41 2.16 16.35 2.81 15.7L3.92 14.59C4.24 14.27 4.67 14.1 5.1 14.1 5.46 14.1 5.83 14.22 6.13 14.45L15.8 4.78C15.29 4.13 15.33 3.18 15.93 2.58L17.04 1.47C17.35 1.16 17.78 1 18.21 1M18.21 0C17.5 0 16.83 0.28 16.32 0.78L15.21 1.89C14.48 2.62 14.26 3.68 14.56 4.61L5.91 13.26C5.64 13.17 5.36 13.13 5.08 13.13 4.37 13.13 3.7 13.41 3.2 13.91L2.1 15C1.06 16.04 1.06 17.73 2.1 18.77L10.97 27.64C11.47 28.14 12.14 28.42 12.86 28.42 13.57 28.42 14.24 28.14 14.75 27.64L15.86 26.53C16.59 25.8 16.81 24.74 16.51 23.81L18.16 22.16 23.49 28.05 34.29 38.86 34.33 38.9 34.37 38.93 35.86 40.13 36.29 40.47 36.81 40.3 38.38 39.77 38.6 39.7 38.77 39.53 41.01 37.29 41.18 37.12 41.25 36.9 41.78 35.33 41.95 34.83 41.63 34.41 40.47 32.88 40.43 32.83 40.38 32.78 29.62 22.04 29.59 22.01 29.56 21.99 23.52 16.79 25.14 15.17C25.41 15.26 25.69 15.3 25.97 15.3 26.68 15.3 27.35 15.02 27.86 14.52L28.97 13.41C30.01 12.37 30.01 10.68 28.97 9.64L20.1 0.77C19.59 0.28 18.92 0 18.21 0L18.21 0Z" fill="#FFFFFF"/></g></g><g><path d="M19.49 39.52 19.67 39.52 19.23 39.52 2.48 39.52 2.51 39.52 1 40.26 1 41 20.71 41 20.71 40.26Z" fill="#2C5967"/><path d="M19.49 34.63C19.49 33.55 18.61 32.67 17.53 32.67L4.41 32.67C3.33 32.67 2.45 33.55 2.45 34.63L2.45 38.4 19.49 38.41C19.49 38.41 19.49 34.63 19.49 34.63ZM18.01 36.93 3.93 36.92 3.93 34.63C3.93 34.37 4.15 34.15 4.41 34.15L17.53 34.15C17.79 34.15 18.01 34.37 18.01 34.63 18.01 34.63 18.01 36.93 18.01 36.93Z" fill="#2C5967"/><path d="M40.81 35.02 40.29 34.5 35.95 38.84 36.47 39.36 38.04 38.84 38.04 38.84 40.29 36.59 40.29 36.59 40.29 36.59Z" fill="#2C5967"/><path d="M28.91 22.75 22.05 16.85 24.94 13.96C25.24 14.2 25.6 14.31 25.97 14.31 26.4 14.31 26.82 14.15 27.15 13.82L28.26 12.71 28.26 12.71C28.91 12.06 28.91 11 28.26 10.35L19.39 1.48C18.74 0.83 17.68 0.83 17.03 1.48L15.92 2.59C15.32 3.19 15.28 4.14 15.79 4.79L6.12 14.46C5.47 13.95 4.52 13.99 3.92 14.59L2.81 15.7C2.16 16.35 2.16 17.41 2.81 18.06L11.68 26.93C12 27.25 12.43 27.42 12.86 27.42 13.29 27.42 13.71 27.26 14.04 26.93L15.15 25.82 15.15 25.82C15.75 25.22 15.79 24.27 15.28 23.62L18.18 20.72 24.22 27.39 34.99 38.16 39.66 33.49 28.91 22.75ZM16.97 3.64 18.08 2.53C18.12 2.49 18.16 2.48 18.21 2.48 18.26 2.48 18.3 2.5 18.34 2.53L27.21 11.4C27.28 11.47 27.28 11.59 27.21 11.66L26.1 12.77C26.03 12.84 25.91 12.84 25.84 12.77L16.97 3.9C16.9 3.83 16.9 3.71 16.97 3.64ZM14.09 24.78 12.98 25.89C12.91 25.96 12.79 25.96 12.72 25.89L3.85 17.02C3.78 16.95 3.78 16.83 3.85 16.76L4.96 15.65C5 15.61 5.04 15.6 5.09 15.6 5.14 15.6 5.18 15.62 5.22 15.65L14.09 24.52C14.17 24.59 14.17 24.71 14.09 24.78ZM14.24 22.57 7.18 15.51 16.83 5.86 23.89 12.92 20.93 15.88 20.93 15.88 17.18 19.63 17.18 19.63 14.24 22.57ZM25.3 26.39 19.23 19.68 21.01 17.9 27.89 23.82 37.57 33.5 34.99 36.08 25.3 26.39Z" fill="#2C5967"/></g></g></g></svg>