<svg viewBox="0 0 43.38 42.12" xmlns="http://www.w3.org/2000/svg" xmlns:xlink="http://www.w3.org/1999/xlink" id="Layer_1" overflow="hidden"><g><g><g><path d="M28.13 41.28C21.73 38.08 17.88 33.07 17.57 27.55L17.57 21.98 0.54 21.98 0.64 20.65C0.9 17.13 2.93 14.04 6.06 12.39 6.79 12.01 7.3 11.31 7.47 10.48 7.97 8.02 9.64 5.95 11.93 4.94 12.9 4.51 13.98 4.29 15.04 4.29 15.28 4.29 15.52 4.3 15.76 4.32 15.85 4.33 15.94 4.33 16.03 4.33 16.76 4.33 17.42 4.05 17.9 3.53 19.7 1.59 22.24 0.48 24.88 0.48 28.52 0.48 31.78 2.5 33.4 5.76 33.76 6.49 34.44 7.01 35.26 7.19 36.35 7.43 37.39 7.86 38.34 8.46 42.66 11.18 44.14 16.82 41.72 21.31L41.37 21.96 39.8 21.96 39.8 27.5C39.49 33.05 35.63 38.05 29.23 41.26L28.68 41.54 28.13 41.28Z" fill="#FFFFFF"/><path d="M24.88 1C28.32 1 31.42 2.92 32.95 6 33.38 6.87 34.18 7.48 35.15 7.7 36.19 7.93 37.17 8.33 38.07 8.9 42.17 11.48 43.58 16.83 41.28 21.09L41.07 21.48 39.3 21.48 39.3 27.52C39 32.86 35.25 37.71 29.01 40.83L28.69 41 28.36 40.83C22.13 37.71 18.38 32.86 18.07 27.52L18.07 27.48 18.07 21.48 1.08 21.48 1.14 20.69C1.39 17.34 3.32 14.41 6.3 12.84 7.16 12.39 7.77 11.57 7.97 10.59 8.44 8.29 10 6.35 12.14 5.41 13.06 5.01 14.05 4.8 15.05 4.8 15.28 4.8 15.5 4.81 15.73 4.83 15.84 4.84 15.94 4.84 16.04 4.84 16.9 4.84 17.7 4.5 18.27 3.88 19.96 2.05 22.38 1 24.88 1M24.88 0C22.1 0 19.42 1.17 17.53 3.21 17.15 3.62 16.62 3.84 16.03 3.84 15.96 3.84 15.88 3.84 15.81 3.83 15.56 3.81 15.3 3.8 15.04 3.8 13.91 3.8 12.77 4.04 11.73 4.5 9.29 5.57 7.51 7.78 6.98 10.4 6.84 11.08 6.42 11.65 5.83 11.96 2.54 13.69 0.42 16.93 0.14 20.62L0.08 21.41 0 22.49 1.08 22.49 17.07 22.49 17.07 27.49 17.07 27.5 17.07 27.56C17.4 33.29 21.35 38.45 27.91 41.74L28.24 41.91 28.69 42.13 29.14 41.91 29.47 41.74C36.03 38.45 39.99 33.3 40.31 27.59L40.31 27.56 40.31 27.53 40.31 22.49 41.08 22.49 41.68 22.49 41.96 21.96 42.17 21.57C44.71 16.85 43.15 10.92 38.61 8.06 37.61 7.43 36.52 6.98 35.37 6.73 34.7 6.58 34.14 6.16 33.85 5.56 32.14 2.13 28.71 0 24.88 0L24.88 0Z" fill="#FFFFFF"/></g><g><path d="M15.58 6.3C14.61 6.21 13.63 6.37 12.73 6.76 11.36 7.36 10.29 8.48 9.73 9.85L17.34 9.85 17.34 6.16 17.29 6.16C16.73 6.31 16.16 6.36 15.58 6.3Z" fill="none"/><path d="M6.98 14.15C6.5 14.4 6.06 14.69 5.65 15.02L11.97 15.02 11.97 11.33 9.29 11.33C8.93 12.55 8.1 13.56 6.98 14.15Z" fill="none"/><path d="M2.71 20.01 6.81 20.01 6.81 16.5 4.22 16.5C3.45 17.52 2.93 18.72 2.71 20.01Z" fill="none"/><path d="M29.33 22.59 27.85 22.59 27.85 14.98 19.54 18.54 19.54 27.45C19.8 31.9 22.81 36.02 27.85 38.88L27.85 24.44 29.33 24.44 29.33 38.99C34.48 36.12 37.56 31.96 37.83 27.46L37.83 18.55 29.33 14.91 29.33 22.59Z" fill="none"/><path d="M31.63 6.66C31.54 6.49 31.45 6.32 31.35 6.15L29.15 6.15 29.15 9.84 36.76 9.84C36.15 9.52 35.51 9.28 34.84 9.13 33.43 8.83 32.26 7.93 31.63 6.66Z" fill="none"/><rect x="18.81" y="6.16" width="8.86" height="3.69" fill="none"/><path d="M22.5 2.87C21.4 3.24 20.39 3.85 19.56 4.68L22.5 4.68 22.5 2.87Z" fill="none"/><path d="M24.88 2.48C24.58 2.48 24.28 2.5 23.98 2.54L23.98 4.68 30.2 4.68C28.82 3.29 26.92 2.48 24.88 2.48Z" fill="none"/><path d="M38.08 8.91C37.18 8.34 36.19 7.94 35.16 7.71 34.19 7.5 33.39 6.88 32.96 6.01 31.43 2.92 28.33 1.01 24.89 1.01 22.39 1.01 19.98 2.06 18.27 3.9 17.63 4.59 16.7 4.93 15.72 4.84 14.5 4.72 13.26 4.92 12.14 5.42 9.99 6.36 8.43 8.3 7.97 10.6 7.77 11.58 7.16 12.4 6.3 12.85 3.32 14.42 1.39 17.35 1.14 20.7L1.08 21.49 16.96 21.49 16.96 20.01 8.28 20.01 8.28 16.5 17.33 16.5 17.33 16.68 21.21 15.02 13.45 15.02 13.45 11.33 22.5 11.33 22.5 14.47 23.98 13.84 23.98 11.33 32.66 11.33 32.66 13.52 34.14 14.15 34.14 11.33 38.73 11.33C39.73 12.37 40.41 13.65 40.72 15.02L36.17 15.02 39.62 16.5 40.91 16.5C40.94 17.49 40.78 18.49 40.42 19.45L40.42 21.49 41.08 21.49 41.29 21.1C43.58 16.84 42.17 11.48 38.08 8.91ZM6.8 20.01 2.7 20.01C2.92 18.72 3.44 17.52 4.21 16.5L6.8 16.5 6.8 20.01ZM11.97 15.02 5.65 15.02C6.06 14.69 6.5 14.4 6.98 14.15 8.1 13.56 8.93 12.55 9.3 11.33L11.98 11.33 11.98 15.02ZM17.33 9.85 9.72 9.85C10.28 8.48 11.35 7.37 12.72 6.76 13.62 6.37 14.6 6.21 15.57 6.3 16.16 6.36 16.73 6.3 17.27 6.15L17.32 6.15 17.32 9.85ZM23.98 2.53C24.28 2.49 24.58 2.47 24.88 2.47 26.92 2.47 28.82 3.28 30.2 4.67L23.98 4.67 23.98 2.53ZM22.5 2.87 22.5 4.68 19.56 4.68C20.39 3.85 21.4 3.23 22.5 2.87ZM27.67 9.85 18.81 9.85 18.81 6.16 27.67 6.16 27.67 9.85ZM29.15 9.85 29.15 6.16 31.35 6.16C31.45 6.32 31.54 6.49 31.63 6.67 32.26 7.94 33.43 8.84 34.83 9.15 35.5 9.3 36.14 9.54 36.75 9.86L29.15 9.86Z" fill="#2C5967"/><path d="M18.07 17.57 18.07 27.48 18.07 27.52C18.37 32.86 22.12 37.71 28.36 40.83L28.69 41 29.02 40.83C35.26 37.71 39.01 32.86 39.31 27.52L39.31 17.57 28.69 13.02 18.07 17.57ZM37.83 27.46C37.57 31.97 34.49 36.12 29.33 38.99L29.33 24.44 27.85 24.44 27.85 38.89C22.81 36.02 19.8 31.91 19.54 27.46L19.54 18.55 27.85 14.99 27.85 22.6 29.33 22.6 29.33 14.91 37.83 18.55 37.83 27.46Z" fill="#2C5967"/></g></g></g></svg>