<svg width="40" height="40" viewBox="0 0 40 40" xmlns="http://www.w3.org/2000/svg" xmlns:xlink="http://www.w3.org/1999/xlink" overflow="hidden"><defs></defs><path d="M38.3 0 1.7 0C0.7 0 0 0.7 0 1.7L0 38.4C0 39.3 0.7 40 1.7 40L38.4 40C39.3 40 40.1 39.3 40.1 38.3L40.1 1.7C40 0.7 39.3 0 38.3 0ZM38.5 38.3C38.5 38.4 38.4 38.5 38.3 38.5L1.7 38.5C1.6 38.5 1.5 38.4 1.5 38.3L1.5 1.7C1.5 1.6 1.6 1.5 1.7 1.5L38.4 1.5C38.5 1.5 38.6 1.6 38.6 1.7L38.6 38.3Z" fill="#2D5967"/><path d="M4.4 35.4 35.5 35.4 35.5 26.5 4.4 26.5 4.4 35.4ZM5.9 28 34 28 34 33.9 5.9 33.9 5.9 28Z" fill="#2D5967"/><circle cx="30.7" cy="30.9" r="1.1" fill="#2D5967"/><path d="M4.4 13.3 35.5 13.3 35.5 4.4 4.4 4.4 4.4 13.3ZM5.9 5.9 34 5.9 34 11.8 5.9 11.8 5.9 5.9Z" fill="#2D5967"/><circle cx="30.7" cy="8.9" r="1.1" fill="#2D5967"/><path d="M4.4 24.4 35.5 24.4 35.5 15.5 4.4 15.5 4.4 24.4ZM5.9 17 34 17 34 23 5.9 23 5.9 17Z" fill="#2D5967"/><circle cx="30.7" cy="20" r="1.1" fill="#2D5967"/></svg>