<svg viewBox="0 0 109.36 22.96" xmlns="http://www.w3.org/2000/svg" xmlns:xlink="http://www.w3.org/1999/xlink" id="logo" overflow="hidden"><g><path d="M47.9122 13.4234 54.459 13.4234 51 7.84135 44.6505 17.9233 41.75 17.9233 49.4805 5.82375C49.8106 5.33355 50.377 5.03665 50.9962 5.03665 51.6017 5.03665 52.1582 5.32375 52.4883 5.80225L60.2422 17.9233 57.3497 17.9233 55.9865 15.6694 49.3574 15.6694 47.9122 13.4234M77.9512 15.6694 77.9512 5.15975 75.4922 5.15975 75.4922 16.7027C75.4922 17.0172 75.6251 17.3258 75.8556 17.5483 76.09 17.7906 76.4121 17.9233 76.75 17.9233L87.9317 17.9233 89.3887 15.6694 77.9512 15.6694M37.3512 13.7906C39.7407 13.7906 41.6622 11.8569 41.6622 9.47415 41.6622 7.09135 39.7407 5.15975 37.3512 5.15975L26.6129 5.15975 26.6129 17.9233 29.0669 17.9233 29.0669 7.41555 37.188 7.41555C38.3278 7.41555 39.2515 8.33555 39.2515 9.47415 39.2515 10.6109 38.3278 11.5464 37.188 11.5464L30.2672 11.5406 37.5973 17.9233 41.1582 17.9233 36.235 13.7906 37.3512 13.7906M11.5142 17.9233 18.9331 17.9233C22.4625 17.9233 25.3043 15.0718 25.3043 11.5464 25.3043 8.01715 22.4625 5.15975 18.9331 5.15975L11.5142 5.15975C7.98886 5.15975 5.12945 8.01715 5.12945 11.5464 5.12945 15.0718 7.98886 17.9233 11.5142 17.9233M18.7633 15.6772 11.6774 15.6772C9.39705 15.6772 7.54935 13.8237 7.54935 11.5464 7.54935 9.25935 9.39705 7.41555 11.6774 7.41555L18.7633 7.41555C21.0513 7.41555 22.8971 9.25935 22.8971 11.5464 22.8971 13.8237 21.0513 15.6772 18.7633 15.6772M65.3672 17.9233 72.9415 17.9233 74.375 15.6772 65.5352 15.6772C63.2442 15.6772 61.3985 13.8237 61.3985 11.5464 61.3985 9.25935 63.2442 7.41555 65.5352 7.41555L72.7305 7.41555 74.1817 5.15975 65.3672 5.15975C61.8399 5.15975 58.9746 8.01715 58.9746 11.5464 58.9747 15.0718 61.84 17.9233 65.3672 17.9233M95.381 15.6772C93.4903 15.6772 91.8965 14.4078 91.4044 12.6714L101.893 12.6714 103.338 10.4214 91.4044 10.4214C91.8947 8.68125 93.4903 7.41555 95.381 7.41555L102.582 7.41555 104.022 5.15975 95.2169 5.15975C91.6953 5.15975 88.8379 8.01715 88.8379 11.5464 88.8379 15.0718 91.6953 17.9233 95.2169 17.9233L102.791 17.9233 104.231 15.6772 95.381 15.6772" fill="#C74634"/></g></svg>