<svg viewBox="0 0 42 42" xmlns="http://www.w3.org/2000/svg" xmlns:xlink="http://www.w3.org/1999/xlink" id="Layer_1" overflow="hidden"><g><g><g><path d="M2.67 41.5C1.48 41.5 0.5 40.53 0.5 39.33L0.5 2.67C0.5 1.47 1.47 0.5 2.67 0.5L39.34 0.5C40.53 0.5 41.51 1.47 41.51 2.67L41.51 39.34C41.51 40.54 40.54 41.51 39.34 41.51L2.67 41.51Z" fill="#FFFFFF"/><path d="M39.33 1C40.25 1 41 1.75 41 2.67L41 39.34C41 40.26 40.25 41.01 39.33 41.01L2.67 41.01C1.75 41 1 40.25 1 39.33L1 2.67C1 1.75 1.75 1 2.67 1L39.33 1M39.33 0 2.67 0C1.2 0 0 1.2 0 2.67L0 39.34C0 40.8 1.2 42 2.67 42L39.34 42C40.8 42 42 40.8 42 39.33L42 2.67C42 1.2 40.8 0 39.33 0L39.33 0Z" fill="#FFFFFF"/></g><g><g><path d="M30.44 11.65 33.15 16.37 30.41 21.09 24.96 21.09 22.25 16.37 24.99 11.65 30.44 11.65M31.3 10.17 24.14 10.17 20.55 16.37 24.12 22.57 31.28 22.57 34.87 16.37 31.3 10.17 31.3 10.17Z" fill="#2C5967"/></g><g><path d="M20.72 25.94C23.31 25.94 25.41 28.04 25.41 30.63 25.41 33.22 23.31 35.32 20.72 35.32 18.13 35.32 16.03 33.22 16.03 30.63 16.04 28.05 18.14 25.94 20.72 25.94M20.72 24.46C17.3 24.46 14.55 27.22 14.55 30.63 14.55 34.05 17.34 36.8 20.72 36.8 24.11 36.8 26.89 34.04 26.89 30.63 26.9 27.22 24.14 24.46 20.72 24.46L20.72 24.46Z" fill="#2C5967"/></g><g><path d="M13.6 12.83 17.98 20.76 9.26 20.76 13.6 12.83M13.59 9.75 6.76 22.24 20.48 22.24 13.59 9.75 13.59 9.75Z" fill="#2C5967"/></g></g><g><path d="M39.33 41 2.67 41C1.75 41 1 40.25 1 39.33L1 4.99 41 4.99 41 39.34C41 40.25 40.25 41 39.33 41ZM2.48 6.47 2.48 39.34C2.48 39.44 2.56 39.53 2.67 39.53L39.34 39.53C39.44 39.53 39.53 39.45 39.53 39.34L39.53 6.47 2.48 6.47Z" fill="#2C5967"/></g><g><path d="M41 3.87 1 3.87 1 2.67C1 1.75 1.75 1 2.67 1L39.34 1C40.25 1 41 1.75 41 2.67L41 3.87Z" fill="#2C5967"/></g></g></g></svg>