<svg viewBox="0 0 42.38 42" xmlns="http://www.w3.org/2000/svg" xmlns:xlink="http://www.w3.org/1999/xlink" id="Layer_1" overflow="hidden"><g><g><g><path d="M34.2 41.5 34.2 39.02 37.21 39.02 23.16 24.96C22.79 29.72 21.7 33.91 19.99 37.14 17.89 40.7 15.77 41.43 14.36 41.43 14.11 41.43 13.85 41.41 13.6 41.36 9.57 40.62 7.14 34.57 6.2 29.15 5.82 27.12 5.58 24.74 5.53 22.24L0.5 22.24 0.5 19.76 5.53 19.76C5.59 17.17 5.84 14.69 6.25 12.59 7.56 5.23 10.69 0.64 14.42 0.6 16.6 0.6 20.5 2.19 22.6 12.83 22.84 14.18 23.01 15.58 23.13 17.03L37.17 2.98 34.2 2.98 34.2 0.5 41.5 0.5 41.5 7.8 39.02 7.8 39.02 4.64 23.9 19.76 36.78 19.76 34.78 17.85 36.49 16.05 41.66 20.97 36.52 26.11 34.77 24.36 36.89 22.23 23.95 22.23 39.02 37.3 39.02 34.2 41.5 34.2 41.5 41.5 34.2 41.5Z" fill="#FFFFFF"/><path d="M41 1 41 7.3 39.52 7.3 39.52 3.44 22.79 20.17C22.79 20.2 22.79 20.23 22.79 20.26L38.04 20.26 35.49 17.83 36.51 16.76 40.95 20.99 36.52 25.42 35.47 24.37 38.09 21.75 22.79 21.75C22.79 21.77 22.79 21.78 22.79 21.8L39.51 38.52 39.51 34.7 41 34.7 41 41 34.7 41 34.7 39.52 38.42 39.52 22.72 23.82C22.47 28.39 21.55 33.1 19.54 36.9L19.52 36.94C17.64 40.13 15.77 40.93 14.35 40.93 14.11 40.93 13.88 40.91 13.67 40.87 9.89 40.18 7.54 34.08 6.68 29.06 6.26 26.86 6.04 24.31 6 21.74L1 21.74 1 20.26 6.02 20.26C6.06 17.59 6.3 14.95 6.74 12.68 8 5.57 10.95 1.13 14.42 1.1 14.43 1.1 14.44 1.1 14.46 1.1 16.46 1.1 20.08 2.65 22.1 12.92L22.1 12.94C22.37 14.5 22.59 16.27 22.7 18.15L38.38 2.48 34.7 2.48 34.7 1 41 1M42 0 41 0 34.7 0 33.7 0 33.7 1 33.7 2.48 33.7 3.48 34.7 3.48 35.96 3.48 23.53 15.92C23.42 14.83 23.27 13.78 23.09 12.77 21.02 2.29 17.26 0.1 14.46 0.1 10.37 0.14 7.13 4.78 5.75 12.51 5.36 14.5 5.12 16.82 5.04 19.26L1 19.26 0 19.26 0 20.26 0 21.74 0 22.74 1 22.74 5.04 22.74C5.12 25.08 5.35 27.32 5.71 29.25 6.67 34.82 9.22 41.07 13.51 41.85 13.79 41.9 14.08 41.93 14.37 41.93 15.91 41.93 18.21 41.15 20.4 37.45L20.4 37.44 20.43 37.39C22.05 34.33 23.12 30.45 23.57 26.06L36.02 38.51 34.7 38.51 33.7 38.51 33.7 39.51 33.7 41 33.7 42 34.7 42 41 42 42 42 42 41 42 34.7 42 33.7 41 33.7 39.52 33.7 38.52 33.7 38.52 34.7 38.52 36.1 25.16 22.74 35.69 22.74 34.77 23.66 34.06 24.37 34.77 25.08 35.82 26.13 36.53 26.84 37.24 26.13 41.67 21.7 42.39 20.98 41.65 20.27 37.21 16.04 36.49 15.35 35.8 16.07 34.78 17.14 34.09 17.86 34.81 18.55 35.55 19.25 25.11 19.25 38.52 5.85 38.52 7.3 38.52 8.3 39.52 8.3 41 8.3 42 8.3 42 7.3 42 1 42 0 42 0Z" fill="#FFFFFF"/></g><g><path d="M14.46 2.95C14.45 2.95 14.45 2.95 14.44 2.95 12.47 2.97 9.78 6.13 8.56 13.01L8.56 13.03C8.14 15.2 7.91 17.71 7.87 20.26L16.75 20.26 14.01 17.65 15.03 16.58 19.65 20.99 15.22 25.41 14.17 24.36 16.79 21.74 7.86 21.74C7.9 24.2 8.11 26.63 8.51 28.73 9.47 34.3 11.78 38.63 14.02 39.04 14.13 39.06 14.25 39.07 14.36 39.07 15.79 39.07 17.07 37.44 17.92 36.01 21.21 29.76 21.48 20.09 20.28 13.26 18.78 5.66 16.29 2.95 14.46 2.95Z" fill="none"/><path d="M41 7.3 41 1 34.7 1 34.7 2.48 38.37 2.48 22.71 18.15C22.6 16.27 22.39 14.5 22.11 12.94L22.11 12.92C20.08 2.65 16.46 1.1 14.46 1.1 14.45 1.1 14.44 1.1 14.42 1.1 10.95 1.13 8 5.57 6.74 12.68 6.3 14.95 6.06 17.59 6.02 20.26L1 20.26 1 21.74 6.01 21.74C6.05 24.32 6.27 26.86 6.69 29.06 7.55 34.07 9.9 40.17 13.68 40.87 13.89 40.91 14.12 40.93 14.36 40.93 15.77 40.93 17.64 40.13 19.53 36.94L19.55 36.9C21.56 33.1 22.48 28.39 22.73 23.82L38.43 39.52 34.7 39.52 34.7 41 41 41 41 34.7 39.52 34.7 39.52 38.51 22.79 21.79C22.79 21.77 22.79 21.76 22.79 21.74L38.1 21.74 35.48 24.36 36.53 25.41 40.96 20.98 36.52 16.75 35.5 17.82 38.05 20.25 22.79 20.25C22.79 20.22 22.79 20.19 22.79 20.16L39.52 3.44 39.52 7.3 41 7.3ZM17.92 36.02C17.07 37.45 15.79 39.08 14.36 39.08 14.25 39.08 14.13 39.07 14.02 39.05 11.79 38.64 9.47 34.31 8.51 28.74 8.11 26.63 7.9 24.2 7.86 21.75L16.8 21.75 14.18 24.37 15.23 25.42 19.66 21 15.04 16.59 14.02 17.66 16.76 20.27 7.86 20.27C7.9 17.72 8.13 15.21 8.55 13.04L8.55 13.02C9.77 6.13 12.46 2.98 14.43 2.96 14.44 2.96 14.44 2.96 14.45 2.96 16.28 2.96 18.77 5.67 20.28 13.28 21.48 20.09 21.21 29.77 17.92 36.02Z" fill="#2C5967"/></g></g></g></svg>