<svg viewBox="0 0 48.47 42.02" xmlns="http://www.w3.org/2000/svg" xmlns:xlink="http://www.w3.org/1999/xlink" id="Layer_1" overflow="hidden"><g><g><path d="M22.5 41.52C19.38 41.52 16.43 41.23 14.21 40.69 11.26 39.98 9.82 38.91 9.82 37.4L9.82 22.9 0.54 22.9 0.65 21.38C0.92 17.71 3.04 14.49 6.3 12.77 7.01 12.39 7.51 11.73 7.66 10.96 8.17 8.36 9.92 6.18 12.34 5.11 13.36 4.66 14.49 4.43 15.6 4.43 15.85 4.43 16.1 4.44 16.35 4.46 16.44 4.47 16.52 4.47 16.61 4.47 17.32 4.47 17.97 4.19 18.43 3.69 20.15 1.84 22.44 0.73 24.94 0.54L24.94 0.54 25.94 0.52 25.94 0.53C29.63 0.61 32.93 2.7 34.59 6.02 34.71 6.26 34.88 6.49 35.07 6.69 35.31 7.04 35.63 7.49 35.91 7.89 38.91 7.99 41.64 9.56 43.24 12.13L43.28 12.2 43.63 13.73 47.75 17.85 45.74 19.86 44.44 18.56C43.65 22.75 39.95 25.9 35.59 25.9 35.45 25.9 35.31 25.9 35.17 25.89L35.17 37.42C35.17 38.92 33.73 40 30.78 40.71 28.57 41.23 25.62 41.52 22.5 41.52Z" fill="#FFFFFF"/><path d="M25.72 1.02C29.31 1.02 32.55 3.02 34.15 6.24 34.3 6.54 34.5 6.81 34.73 7.04 34.95 7.38 35.35 7.94 35.66 8.38 38.64 8.4 41.32 9.97 42.82 12.39L43.19 13.97 47.06 17.84 45.76 19.14 44.09 17.47C43.79 21.89 40.1 25.39 35.61 25.39 35.3 25.39 34.99 25.36 34.69 25.33L34.69 37.41C34.69 38.65 33.38 39.57 30.69 40.21 28.49 40.74 25.59 41.02 22.51 41.02 19.43 41.02 16.53 40.73 14.33 40.21 11.64 39.57 10.33 38.65 10.33 37.41L10.33 22.4 1.08 22.4 1.15 21.41C1.41 17.91 3.42 14.85 6.54 13.21 7.39 12.76 7.98 11.98 8.16 11.05 8.64 8.61 10.28 6.56 12.55 5.56 13.52 5.14 14.56 4.92 15.61 4.92 15.85 4.92 16.08 4.93 16.31 4.95 16.41 4.96 16.51 4.96 16.62 4.96 17.46 4.96 18.25 4.63 18.81 4.02 20.55 2.15 22.91 1.08 25.46 1.01L25.48 1.93 25.46 1.01C25.55 1.02 25.63 1.02 25.72 1.02M26.44 0 25.44 0.03C25.43 0.03 25.43 0.03 25.42 0.03L24.44 0.06 24.44 0.11C22 0.4 19.77 1.53 18.08 3.36 17.71 3.76 17.19 3.98 16.62 3.98 16.55 3.98 16.48 3.98 16.41 3.97 16.14 3.95 15.88 3.93 15.61 3.93 14.43 3.93 13.23 4.18 12.15 4.66 9.58 5.79 7.72 8.11 7.18 10.87 7.06 11.5 6.65 12.03 6.07 12.33 2.65 14.13 0.44 17.5 0.15 21.34L0.08 22.33 0 23.4 1.08 23.4 9.32 23.4 9.32 37.41C9.32 40.04 12.91 40.9 14.09 41.18 16.36 41.72 19.35 42.02 22.5 42.02 25.66 42.02 28.64 41.72 30.91 41.18 32.09 40.9 35.68 40.04 35.68 37.41L35.68 26.39C39.93 26.35 43.58 23.48 44.73 19.53L45.05 19.85 45.76 20.56 46.47 19.85 47.77 18.55 48.48 17.84 47.77 17.13 44.1 13.46 43.8 12.15 43.76 12 43.67 11.86C42.03 9.23 39.26 7.59 36.19 7.4 35.96 7.07 35.72 6.72 35.56 6.49L35.51 6.41 35.44 6.34C35.28 6.17 35.14 5.99 35.05 5.79 33.38 2.45 30.13 0.29 26.44 0.04L26.44 0 26.44 0Z" fill="#FFFFFF"/></g><path d="M3.12 20.56 8.94 20.56 8.94 22.4 1.08 22.4 1.15 21.41C1.41 17.91 3.42 14.85 6.54 13.21 7.39 12.76 7.98 11.98 8.16 11.05 8.64 8.61 10.28 6.56 12.55 5.56 13.73 5.04 15.03 4.83 16.31 4.95 17.27 5.04 18.18 4.7 18.81 4.02 20.55 2.15 22.91 1.08 25.46 1.01L25.46 1.01C25.54 1.01 25.63 1.01 25.71 1.01 29.3 1.01 32.54 3.01 34.14 6.23 34.29 6.53 34.49 6.8 34.72 7.03 34.03 7.09 33.35 7.22 32.71 7.42 32.64 7.3 32.57 7.18 32.5 7.05 31.21 4.46 28.6 2.85 25.71 2.85 25.64 2.85 25.57 2.85 25.5 2.85 23.45 2.9 21.54 3.77 20.14 5.27 19.12 6.37 17.65 6.92 16.12 6.78 15.15 6.69 14.17 6.85 13.27 7.24 11.55 8 10.31 9.55 9.94 11.4 9.65 12.87 8.71 14.12 7.37 14.83 5.14 16.02 3.59 18.12 3.12 20.56M34.69 12 36.51 12 39.06 20.86 37.1 20.86 36.66 19 34.45 19 34.02 20.86 32.12 20.86 34.69 12ZM34.8 17.49 36.32 17.49 35.56 14.18 34.8 17.49ZM27.12 16.3 25.45 14.63 24.15 15.93 28.02 19.8 31.89 15.93 30.59 14.63 28.97 16.25C29.29 12.87 32.15 10.23 35.6 10.23 38.1 10.23 40.34 11.63 41.48 13.75L42.82 12.41C41.3 9.98 38.6 8.4 35.6 8.4 31.11 8.38 27.42 11.88 27.12 16.3M47.06 17.84 43.19 13.97 39.32 17.84 40.62 19.14 42.24 17.52C41.92 20.9 39.06 23.54 35.61 23.54 33.11 23.54 30.87 22.14 29.73 20.02L28.39 21.36C29.91 23.79 32.61 25.37 35.61 25.37 40.1 25.37 43.79 21.87 44.09 17.45L45.76 19.12 47.06 17.84ZM32.85 26.58C33.44 26.76 34.06 26.88 34.69 26.94L34.69 37.4C34.69 38.64 33.38 39.56 30.69 40.2 28.49 40.73 25.59 41.01 22.51 41.01 19.43 41.01 16.53 40.72 14.33 40.2 11.64 39.56 10.33 38.64 10.33 37.4L10.33 17.8C10.33 16.55 11.65 15.66 14.35 15.07 16.48 14.61 19.38 14.35 22.51 14.35 22.66 14.35 22.82 14.35 22.97 14.35L22.97 16.19C22.82 16.19 22.67 16.19 22.51 16.19 15.96 16.19 12.58 17.26 12.17 17.86L12.17 17.97C12.61 18.64 16.36 19.81 22.51 19.81 23.78 19.81 24.95 19.76 26.01 19.68 26.19 20.3 26.42 20.9 26.71 21.46 25.39 21.58 23.97 21.65 22.51 21.65 19.43 21.65 16.53 21.36 14.33 20.84 13.47 20.63 12.75 20.4 12.16 20.13L12.16 24.41C12.6 25.08 16.35 26.25 22.5 26.25 25.91 26.25 28.57 25.89 30.35 25.46 31.11 25.94 31.94 26.32 32.82 26.58 32.24 26.84 31.53 27.07 30.68 27.27 28.48 27.8 25.58 28.08 22.5 28.08 19.42 28.08 16.52 27.79 14.32 27.27 13.46 27.06 12.74 26.83 12.15 26.56L12.15 30.89C12.59 31.56 16.34 32.73 22.49 32.73 28.64 32.73 32.4 31.56 32.83 30.89L32.83 26.58ZM32.85 33.06C32.27 33.32 31.55 33.56 30.68 33.77 28.48 34.3 25.58 34.58 22.5 34.58 19.42 34.58 16.52 34.29 14.32 33.77 13.46 33.56 12.74 33.33 12.15 33.06L12.15 37.35C12.54 37.91 15.94 39.19 22.49 39.19 29.04 39.19 32.45 37.92 32.83 37.35L32.83 33.06Z" fill="#2C5967"/></g></svg>