<svg width="80" height="65.9" viewBox="0 0 80 65.9" xmlns="http://www.w3.org/2000/svg" xmlns:xlink="http://www.w3.org/1999/xlink" overflow="hidden"><defs></defs><path d="M4.2 65.1C2.3 65.1 0.7 63.5 0.7 61.6L0.7 4.2C0.7 2.3 2.3 0.7 4.2 0.7L75.7 0.7C77.6 0.7 79.2 2.3 79.2 4.2L79.2 61.8C79.2 63.7 77.6 65.3 75.7 65.3L4.2 65.3 4.2 65.1Z" fill="#FFFFFF"/><path d="M75.6 1.6C77 1.6 78.3 2.7 78.3 4.3L78.3 61.9C78.3 63.3 77.2 64.6 75.6 64.6L4.2 64.6C2.6 64.4 1.5 63.3 1.5 61.8L1.5 4.2C1.5 2.6 2.6 1.5 4.2 1.5L75.6 1.5ZM75.6 0 4.2 0C1.9 0 0 1.9 0 4.2L0 61.8C0 64 1.9 65.9 4.2 65.9L75.7 65.9C78.1 65.9 79.9 64 79.9 61.7L79.9 4.2C79.8 1.9 78 0 75.6 0Z" fill="#FFFFFF"/><path d="M6.7 62 4.2 62C4 62 3.9 61.8 3.9 61.7L3.9 4.2C3.9 4 4.1 3.9 4.2 3.9L6.9 3.9C6.9 3 7.2 2.2 7.8 1.5L4.2 1.5C2.6 1.5 1.5 2.6 1.5 4.2L1.5 61.8C1.5 63.2 2.6 64.3 4.2 64.3L7.7 64.3C7.2 63.7 6.9 62.9 6.7 62Z" fill="#2C5967"/><path d="M13.8 62 11.1 62C10.9 62 10.8 61.8 10.8 61.7L10.8 4.2C10.8 4 11 3.9 11.1 3.9L13.8 3.9C13.8 3 14.1 2.2 14.6 1.5L11.1 1.5C9.7 1.5 8.4 2.6 8.4 4.2L8.4 61.8C8.4 63.2 9.5 64.5 11.1 64.5L14.6 64.5C14.1 63.7 13.8 62.9 13.8 62Z" fill="#2C5967"/><path d="M75.6 1.6 18.2 1.6C16.8 1.6 15.5 2.7 15.5 4.3L15.5 61.9C15.5 63.3 16.6 64.6 18.2 64.6L75.8 64.6C77.2 64.6 78.5 63.5 78.5 61.9L78.5 4.2C78.3 2.7 77 1.6 75.6 1.6ZM75.9 61.6C75.9 61.8 75.7 61.9 75.6 61.9L18.2 61.9C18 61.9 17.9 61.7 17.9 61.6L17.9 4.2C17.9 4 18.1 3.9 18.2 3.9L75.8 3.9C76 3.9 76.1 4.1 76.1 4.2L76.1 61.6 75.9 61.6Z" fill="#2C5967"/><path d="M22.4 43.1 22.4 57.1 71.2 57.1 71.2 43.1 22.4 43.1ZM69 54.7 24.8 54.7 24.8 45.4 69 45.4 69 54.7Z" fill="#2C5967"/><path d="M63.7 51.8C64.7 51.8 65.4 51 65.4 50.1 65.4 49.1 64.6 48.4 63.7 48.4 62.7 48.4 62 49.2 62 50.1 62 51 62.7 51.8 63.7 51.8Z" fill="#2C5967"/><path d="M45.2 22.4 45.2 8.4 22.4 8.4 22.4 22.4 45.2 22.4ZM24.8 10.8 26.5 10.8 26.5 20.1 24.8 20.1 24.8 10.8 24.8 10.8ZM28.9 10.8 30.6 10.8 30.6 20.1 28.9 20.1 28.9 10.8ZM32.9 20.2 32.9 10.8 34.6 10.8 34.6 20.1 32.9 20.1 32.9 20.2ZM42.8 10.8 42.8 20.1 41.1 20.1 41.1 10.8 42.8 10.8ZM38.7 10.8 38.7 20.1 37 20.1 37 10.8 38.7 10.8Z" fill="#2C5967"/><path d="M48.6 8.5 48.6 22.5 71.2 22.5 71.2 8.5 48.6 8.5ZM51 10.8 52.7 10.8 52.7 20.1 51 20.1 51 10.8ZM55.1 10.8 56.8 10.8 56.8 20.1 55.1 20.1 55.1 10.8ZM59.1 10.8 60.8 10.8 60.8 20.1 59.1 20.1 59.1 10.8ZM63.2 20.2 63.2 10.8 64.9 10.8 64.9 20.1 63.2 20.1 63.2 20.2ZM69 20.2 67.3 20.2 67.3 10.8 69 10.8 69 20.2Z" fill="#2C5967"/><path d="M45.2 39.8 45.2 25.8 22.4 25.8 22.4 39.8 45.2 39.8ZM24.8 28.2 26.5 28.2 26.5 37.6 24.8 37.6 24.8 28.2 24.8 28.2ZM28.9 28.2 30.6 28.2 30.6 37.6 28.9 37.6 28.9 28.2ZM32.9 37.6 32.9 28.2 34.6 28.2 34.6 37.6 32.9 37.6ZM42.8 28.2 42.8 37.6 41.1 37.6 41.1 28.2 42.8 28.2ZM38.7 28.2 38.7 37.6 37 37.6 37 28.2 38.7 28.2Z" fill="#2C5967"/><path d="M48.6 26 48.6 40 71.2 40 71.2 26 48.6 26ZM51 28.2 52.7 28.2 52.7 37.6 51 37.6 51 28.2ZM55.1 28.2 56.8 28.2 56.8 37.6 55.1 37.6 55.1 28.2ZM59.1 28.2 60.8 28.2 60.8 37.6 59.1 37.6 59.1 28.2ZM63.2 37.6 63.2 28.2 64.9 28.2 64.9 37.6 63.2 37.6ZM69 37.6 67.3 37.6 67.3 28.2 69 28.2 69 37.6Z" fill="#2C5967"/></svg>