<svg viewBox="0 0 42 42" xmlns="http://www.w3.org/2000/svg" xmlns:xlink="http://www.w3.org/1999/xlink" id="Layer_1" overflow="hidden"><g><g><g><path d="M2.66 41.5 2.43 41.48C1.33 41.36 0.5 40.43 0.5 39.33L0.5 2.67C0.5 1.48 1.47 0.5 2.67 0.5L39.34 0.5C40.53 0.5 41.51 1.47 41.51 2.67L41.51 41.5 2.66 41.5Z" fill="#FFFFFF"/><path d="M39.33 1C40.25 1 41 1.75 41 2.67L41 41 39.52 41 2.66 41 2.49 40.98C1.65 40.89 1 40.19 1 39.33L1 2.67C1 1.75 1.75 1 2.67 1L39.33 1M39.33 0 2.67 0C1.2 0 0 1.2 0 2.67L0 39.34C0 40.69 1.02 41.83 2.37 41.98L2.55 42 2.6 42 2.65 42 39.51 42 41 42 42 42 42 41 42 2.67C42 1.2 40.8 0 39.33 0L39.33 0Z" fill="#FFFFFF"/></g><g><g><path d="M39.33 2.48 2.67 2.48C2.57 2.48 2.48 2.56 2.48 2.67L2.48 11 39.52 11 39.52 2.67C39.52 2.57 39.43 2.48 39.33 2.48Z" fill="none"/><path d="M39.33 1 2.67 1C1.75 1 1 1.75 1 2.67L1 39.34C1 40.25 1.75 41 2.67 41L2.67 39.52C2.57 39.52 2.48 39.44 2.48 39.33L2.48 12.48 39.52 12.48 39.52 31.37 41 31.37 41 2.67C41 1.75 40.25 1 39.33 1ZM39.52 11 2.48 11 2.48 2.67C2.48 2.57 2.56 2.48 2.67 2.48L39.34 2.48C39.44 2.48 39.53 2.56 39.53 2.67L39.53 11Z" fill="#2C5967"/></g><rect x="8.04" y="18.22" width="25.56" height="1.48" fill="#2C5967"/><rect x="8.04" y="26.37" width="17.78" height="1.48" fill="#2C5967"/><rect x="8.04" y="34.33" width="13.15" height="1.48" fill="#2C5967"/><path d="M4.33 9.15 9.14 9.15 9.14 4.33 4.33 4.33 4.33 9.15ZM5.81 5.81 7.66 5.81 7.66 7.66 5.81 7.66 5.81 5.81Z" fill="#2C5967"/></g></g></g></svg>